<svg xmlns="http://www.w3.org/2000/svg" version="1.1" xmlns:xlink="http://www.w3.org/1999/xlink" xmlns:svgjs="http://svgjs.com/svgjs" width="512" height="512" x="0" y="0" viewBox="0 0 512 512" style="enable-background:new 0 0 512 512" xml:space="preserve" class=""><g><path xmlns="http://www.w3.org/2000/svg" d="m463 244.824219c0 114.324219-92.675781 207-207 207s-207-92.675781-207-207c0-114.320313 92.675781-207 207-207s207 92.679687 207 207zm0 0" fill="#f0c48a" data-original="#f0c48a" class=""></path><path xmlns="http://www.w3.org/2000/svg" d="m145.691406 5.863281h26.453125v443.089844h-26.453125zm0 0" fill="#d3e6f8" data-original="#d3e6f8"></path><path xmlns="http://www.w3.org/2000/svg" d="m291.910156 5.863281h26.453125v443.089844h-26.453125zm0 0" fill="#d3e6f8" data-original="#d3e6f8"></path><path xmlns="http://www.w3.org/2000/svg" d="m438.132812 5.863281h26.453126v443.089844h-26.453126zm0 0" fill="#d3e6f8" data-original="#d3e6f8"></path><path xmlns="http://www.w3.org/2000/svg" d="m438.132812 184.074219h26.453126v34.457031h-26.453126zm0 0" fill="#a4cff2" data-original="#a4cff2"></path><path xmlns="http://www.w3.org/2000/svg" d="m438.132812 330.292969h26.453126v34.457031h-26.453126zm0 0" fill="#a4cff2" data-original="#a4cff2"></path><path xmlns="http://www.w3.org/2000/svg" d="m291.910156 184.074219h26.453125v34.457031h-26.453125zm0 0" fill="#a4cff2" data-original="#a4cff2"></path><path xmlns="http://www.w3.org/2000/svg" d="m291.910156 330.292969h26.453125v34.457031h-26.453125zm0 0" fill="#a4cff2" data-original="#a4cff2"></path><path xmlns="http://www.w3.org/2000/svg" d="m145.691406 184.074219h26.453125v34.457031h-26.453125zm0 0" fill="#a4cff2" data-original="#a4cff2"></path><path xmlns="http://www.w3.org/2000/svg" d="m145.691406 330.292969h26.453125v34.457031h-26.453125zm0 0" fill="#a4cff2" data-original="#a4cff2"></path><path xmlns="http://www.w3.org/2000/svg" d="m5.863281 126.710938h25.457031v357.078124h-25.457031zm0 0" fill="#fd919e" data-original="#fd919e" class=""></path><path xmlns="http://www.w3.org/2000/svg" d="m78.679688 126.710938h25.457031v357.078124h-25.457031zm0 0" fill="#fd919e" data-original="#fd919e" class=""></path><path xmlns="http://www.w3.org/2000/svg" d="m78.679688 414.621094h25.457031v69.167968h-25.457031zm0 0" fill="#e8677d" data-original="#e8677d"></path><path xmlns="http://www.w3.org/2000/svg" d="m5.863281 414.621094h25.457031v69.167968h-25.457031zm0 0" fill="#e8677d" data-original="#e8677d"></path><path xmlns="http://www.w3.org/2000/svg" d="m31.320312 293.367188h47.359376v23.765624h-47.359376zm0 0" fill="#fd919e" data-original="#fd919e" class=""></path><path xmlns="http://www.w3.org/2000/svg" d="m31.320312 361.621094h47.359376v23.769531h-47.359376zm0 0" fill="#fd919e" data-original="#fd919e" class=""></path><path xmlns="http://www.w3.org/2000/svg" d="m31.320312 429.875h47.359376v23.769531h-47.359376zm0 0" fill="#fd919e" data-original="#fd919e" class=""></path><path xmlns="http://www.w3.org/2000/svg" d="m31.320312 225.109375h47.359376v23.769531h-47.359376zm0 0" fill="#fd919e" data-original="#fd919e" class=""></path><path xmlns="http://www.w3.org/2000/svg" d="m31.320312 156.855469h47.359376v23.769531h-47.359376zm0 0" fill="#fd919e" data-original="#fd919e" class=""></path><path xmlns="http://www.w3.org/2000/svg" d="m54.910156 156.855469h23.769532v23.769531h-23.769532zm0 0" fill="#e8677d" data-original="#e8677d"></path><path xmlns="http://www.w3.org/2000/svg" d="m54.910156 225.109375h23.769532v23.769531h-23.769532zm0 0" fill="#e8677d" data-original="#e8677d"></path><path xmlns="http://www.w3.org/2000/svg" d="m54.910156 293.367188h23.769532v23.765624h-23.769532zm0 0" fill="#e8677d" data-original="#e8677d"></path><path xmlns="http://www.w3.org/2000/svg" d="m54.910156 361.621094h23.769532v23.769531h-23.769532zm0 0" fill="#e8677d" data-original="#e8677d"></path><path xmlns="http://www.w3.org/2000/svg" d="m54.910156 429.875h23.769532v23.769531h-23.769532zm0 0" fill="#e8677d" data-original="#e8677d"></path><g xmlns="http://www.w3.org/2000/svg" fill="#4c4372"><path d="m318.363281 454.816406h-26.453125c-3.234375 0-5.859375-2.625-5.859375-5.863281v-443.089844c0-3.238281 2.625-5.863281 5.859375-5.863281h26.453125c3.238281 0 5.863281 2.625 5.863281 5.863281v443.089844c0 3.238281-2.625 5.863281-5.863281 5.863281zm-20.589843-11.726562h14.730468v-431.367188h-14.730468zm0 0" fill="#4c4372" data-original="#4c4372" class=""></path><path d="m464.585938 454.816406h-26.453126c-3.238281 0-5.863281-2.625-5.863281-5.863281v-443.089844c0-3.238281 2.625-5.863281 5.863281-5.863281h26.453126c3.234374 0 5.859374 2.625 5.859374 5.863281v443.089844c0 3.238281-2.625 5.863281-5.859374 5.863281zm-20.59375-11.726562h14.730468v-431.367188h-14.730468zm0 0" fill="#4c4372" data-original="#4c4372" class=""></path><path d="m438.132812 163.480469h-119.769531c-3.234375 0-5.859375-2.625-5.859375-5.859375v-119.769532c0-3.234374 2.625-5.859374 5.859375-5.859374h119.769531c3.234376 0 5.859376 2.625 5.859376 5.859374v119.769532c0 3.234375-2.625 5.859375-5.859376 5.859375zm-113.90625-11.722657h108.042969v-108.039062h-108.042969zm0 0" fill="#4c4372" data-original="#4c4372" class=""></path><path d="m438.132812 163.480469c-1.5 0-3.003906-.570313-4.148437-1.714844l-119.765625-119.765625c-2.289062-2.289062-2.289062-6.003906 0-8.289062 2.289062-2.292969 6.003906-2.292969 8.292969 0l119.765625 119.765624c2.289062 2.289063 2.289062 6 0 8.289063-1.144532 1.144531-2.644532 1.714844-4.144532 1.714844zm0 0" fill="#4c4372" data-original="#4c4372" class=""></path><path d="m318.363281 163.480469c-1.5 0-3-.570313-4.144531-1.714844-2.289062-2.289063-2.289062-6 0-8.292969l119.765625-119.761718c2.289063-2.292969 6.003906-2.292969 8.289063 0 2.292968 2.285156 2.292968 6 0 8.289062l-119.761719 119.765625c-1.148438 1.144531-2.648438 1.714844-4.148438 1.714844zm0 0" fill="#4c4372" data-original="#4c4372" class=""></path><path d="m438.132812 309.703125c-1.503906 0-3.003906-.570313-4.148437-1.71875l-119.765625-119.765625c-2.289062-2.289062-2.289062-6 0-8.289062 2.289062-2.292969 6.003906-2.289063 8.292969 0l119.765625 119.765624c2.289062 2.289063 2.289062 6 0 8.289063-1.144532 1.148437-2.644532 1.71875-4.144532 1.71875zm0 0" fill="#4c4372" data-original="#4c4372" class=""></path><path d="m318.363281 309.703125c-1.5 0-3-.570313-4.144531-1.71875-2.289062-2.289063-2.289062-6 0-8.289063l119.765625-119.765624c2.289063-2.292969 6.003906-2.292969 8.289063 0 2.292968 2.289062 2.292968 6 0 8.289062l-119.761719 119.765625c-1.148438 1.148437-2.648438 1.71875-4.148438 1.71875zm0 0" fill="#4c4372" data-original="#4c4372" class=""></path><path d="m438.132812 455.921875c-1.5 0-3.003906-.570313-4.148437-1.71875l-119.765625-119.765625c-2.289062-2.289062-2.289062-6 0-8.289062 2.289062-2.289063 6.003906-2.289063 8.292969 0l119.765625 119.765624c2.289062 2.289063 2.289062 6 0 8.289063-1.144532 1.144531-2.644532 1.71875-4.144532 1.71875zm0 0" fill="#4c4372" data-original="#4c4372" class=""></path><path d="m318.363281 455.921875c-1.5 0-3-.570313-4.144531-1.71875-2.289062-2.289063-2.289062-6 0-8.289063l119.765625-119.765624c2.289063-2.289063 6.003906-2.289063 8.289063 0 2.292968 2.289062 2.292968 6 0 8.289062l-119.761719 119.765625c-1.148438 1.144531-2.648438 1.71875-4.148438 1.71875zm0 0" fill="#4c4372" data-original="#4c4372" class=""></path><path d="m291.910156 163.480469h-119.765625c-3.238281 0-5.863281-2.625-5.863281-5.859375v-119.769532c0-3.234374 2.625-5.859374 5.863281-5.859374h119.765625c3.238282 0 5.863282 2.625 5.863282 5.859374v119.769532c0 3.234375-2.625 5.859375-5.863282 5.859375zm-113.902344-11.722657h108.042969v-108.039062h-108.042969zm0 0" fill="#4c4372" data-original="#4c4372" class=""></path><path d="m291.910156 163.480469c-1.5 0-3-.570313-4.144531-1.714844l-119.765625-119.765625c-2.289062-2.289062-2.289062-6.003906 0-8.289062 2.289062-2.292969 6-2.292969 8.289062 0l119.769532 119.765624c2.289062 2.289063 2.289062 6 0 8.289063-1.148438 1.144531-2.648438 1.714844-4.148438 1.714844zm0 0" fill="#4c4372" data-original="#4c4372" class=""></path><path d="m172.144531 163.480469c-1.5 0-3-.570313-4.144531-1.714844-2.289062-2.289063-2.289062-6 0-8.292969l119.765625-119.761718c2.289063-2.292969 6.003906-2.292969 8.292969 0 2.289062 2.285156 2.289062 6 0 8.289062l-119.769532 119.765625c-1.144531 1.144531-2.644531 1.714844-4.144531 1.714844zm0 0" fill="#4c4372" data-original="#4c4372" class=""></path><path d="m291.910156 309.703125c-1.5 0-3-.570313-4.144531-1.71875l-119.765625-119.765625c-2.289062-2.289062-2.289062-6 0-8.289062 2.289062-2.292969 6-2.289063 8.289062 0l119.769532 119.765624c2.289062 2.289063 2.289062 6 0 8.289063-1.148438 1.148437-2.648438 1.71875-4.148438 1.71875zm0 0" fill="#4c4372" data-original="#4c4372" class=""></path><path d="m172.144531 309.703125c-1.5 0-3-.570313-4.144531-1.71875-2.289062-2.289063-2.289062-6 0-8.289063l119.765625-119.765624c2.289063-2.292969 6.003906-2.292969 8.292969 0 2.289062 2.289062 2.289062 6 0 8.289062l-119.769532 119.765625c-1.144531 1.148437-2.644531 1.71875-4.144531 1.71875zm0 0" fill="#4c4372" data-original="#4c4372" class=""></path><path d="m291.910156 455.921875c-1.5 0-3-.570313-4.144531-1.71875l-119.765625-119.765625c-2.289062-2.289062-2.289062-6 0-8.289062 2.289062-2.289063 6-2.289063 8.289062 0l119.769532 119.765624c2.289062 2.289063 2.289062 6 0 8.289063-1.148438 1.144531-2.648438 1.71875-4.148438 1.71875zm0 0" fill="#4c4372" data-original="#4c4372" class=""></path><path d="m172.144531 455.921875c-1.5 0-3-.570313-4.144531-1.71875-2.289062-2.289063-2.289062-6 0-8.289063l119.765625-119.765624c2.289063-2.292969 6.003906-2.289063 8.292969 0 2.289062 2.289062 2.289062 6 0 8.289062l-119.769532 119.765625c-1.144531 1.144531-2.644531 1.71875-4.144531 1.71875zm0 0" fill="#4c4372" data-original="#4c4372" class=""></path><path d="m172.144531 454.816406h-26.453125c-3.238281 0-5.863281-2.625-5.863281-5.863281v-443.089844c0-3.238281 2.625-5.863281 5.863281-5.863281h26.453125c3.238281 0 5.863281 2.625 5.863281 5.863281v443.089844c0 3.238281-2.625 5.863281-5.863281 5.863281zm-20.589843-11.726562h14.726562v-431.367188h-14.726562zm0 0" fill="#4c4372" data-original="#4c4372" class=""></path><path d="m104.136719 489.652344h-25.457031c-3.238282 0-5.863282-2.625-5.863282-5.863282v-357.078124c0-3.238282 2.625-5.863282 5.863282-5.863282h25.457031c3.238281 0 5.863281 2.625 5.863281 5.863282v357.078124c0 3.238282-2.625 5.863282-5.863281 5.863282zm-19.59375-11.722656h13.730469v-345.359376h-13.730469zm0 0" fill="#4c4372" data-original="#4c4372" class=""></path><path d="m78.679688 186.484375h-47.359376c-3.238281 0-5.863281-2.625-5.863281-5.859375v-23.769531c0-3.238281 2.625-5.863281 5.863281-5.863281h47.359376c3.234374 0 5.859374 2.625 5.859374 5.863281v23.769531c0 3.234375-2.625 5.859375-5.859374 5.859375zm-41.496094-11.722656h35.632812v-12.042969h-35.632812zm0 0" fill="#4c4372" data-original="#4c4372" class=""></path><path d="m78.679688 254.742188h-47.359376c-3.238281 0-5.863281-2.625-5.863281-5.863282v-23.769531c0-3.238281 2.625-5.863281 5.863281-5.863281h47.359376c3.234374 0 5.859374 2.625 5.859374 5.863281v23.769531c0 3.238282-2.625 5.863282-5.859374 5.863282zm-41.496094-11.726563h35.632812v-12.042969h-35.632812zm0 0" fill="#4c4372" data-original="#4c4372" class=""></path><path d="m78.679688 322.996094h-47.359376c-3.238281 0-5.863281-2.625-5.863281-5.863282v-23.765624c0-3.238282 2.625-5.863282 5.863281-5.863282h47.359376c3.234374 0 5.859374 2.625 5.859374 5.863282v23.765624c0 3.238282-2.625 5.863282-5.859374 5.863282zm-41.496094-11.726563h35.632812v-12.042969h-35.632812zm0 0" fill="#4c4372" data-original="#4c4372" class=""></path><path d="m78.679688 391.253906h-47.359376c-3.238281 0-5.863281-2.625-5.863281-5.863281v-23.769531c0-3.238282 2.625-5.863282 5.863281-5.863282h47.359376c3.234374 0 5.859374 2.625 5.859374 5.863282v23.769531c0 3.238281-2.625 5.863281-5.859374 5.863281zm-41.496094-11.726562h35.632812v-12.042969h-35.632812zm0 0" fill="#4c4372" data-original="#4c4372" class=""></path><path d="m78.679688 459.507812h-47.359376c-3.238281 0-5.863281-2.625-5.863281-5.863281v-23.769531c0-3.234375 2.625-5.859375 5.863281-5.859375h47.359376c3.234374 0 5.859374 2.625 5.859374 5.859375v23.769531c0 3.238281-2.625 5.863281-5.859374 5.863281zm-41.496094-11.726562h35.632812v-12.042969h-35.632812zm0 0" fill="#4c4372" data-original="#4c4372" class=""></path><path d="m31.320312 489.652344h-25.457031c-3.238281 0-5.863281-2.625-5.863281-5.863282v-357.078124c0-3.238282 2.625-5.863282 5.863281-5.863282h25.457031c3.238282 0 5.863282 2.625 5.863282 5.863282v357.078124c0 3.238282-2.625 5.863282-5.863282 5.863282zm-19.59375-11.722656h13.730469v-345.359376h-13.730469zm0 0" fill="#4c4372" data-original="#4c4372" class=""></path></g><path xmlns="http://www.w3.org/2000/svg" d="m179.152344 448.953125h-40.46875c-11.738282 0-21.253906 9.515625-21.253906 21.253906v13.582031h82.976562v-13.582031c0-11.738281-9.515625-21.253906-21.253906-21.253906zm0 0" fill="#7babf1" data-original="#7babf1" class=""></path><path xmlns="http://www.w3.org/2000/svg" d="m325.371094 448.953125h-40.46875c-11.738282 0-21.253906 9.515625-21.253906 21.253906v13.582031h82.976562v-13.582031c0-11.738281-9.515625-21.253906-21.253906-21.253906zm0 0" fill="#7babf1" data-original="#7babf1" class=""></path><path xmlns="http://www.w3.org/2000/svg" d="m471.59375 448.953125h-40.472656c-11.734375 0-21.25 9.515625-21.25 21.253906v13.582031h82.972656v-13.582031c0-11.738281-9.515625-21.253906-21.25-21.253906zm0 0" fill="#7babf1" data-original="#7babf1" class=""></path><path xmlns="http://www.w3.org/2000/svg" d="m200.402344 489.652344h-82.972656c-3.238282 0-5.863282-2.625-5.863282-5.863282v-13.582031c0-14.953125 12.164063-27.117187 27.117188-27.117187h40.46875c14.953125 0 27.113281 12.164062 27.113281 27.117187v13.582031c0 3.238282-2.625 5.863282-5.863281 5.863282zm-77.109375-11.722656h71.25v-7.722657c0-8.488281-6.902344-15.390625-15.390625-15.390625h-40.46875c-8.484375 0-15.390625 6.902344-15.390625 15.390625zm0 0" fill="#4c4372" data-original="#4c4372" class=""></path><path xmlns="http://www.w3.org/2000/svg" d="m346.625 489.652344h-82.976562c-3.234376 0-5.859376-2.625-5.859376-5.863282v-13.582031c0-14.953125 12.160157-27.117187 27.113282-27.117187h40.46875c14.953125 0 27.117187 12.164062 27.117187 27.117187v13.582031c0 3.238282-2.625 5.863282-5.863281 5.863282zm-77.109375-11.722656h71.246094v-7.722657c0-8.488281-6.902344-15.390625-15.390625-15.390625h-40.46875c-8.484375 0-15.390625 6.902344-15.390625 15.390625v7.722657zm0 0" fill="#4c4372" data-original="#4c4372" class=""></path><path xmlns="http://www.w3.org/2000/svg" d="m492.84375 489.652344h-82.972656c-3.238282 0-5.863282-2.625-5.863282-5.863282v-13.582031c0-14.953125 12.164063-27.117187 27.113282-27.117187h40.472656c14.949219 0 27.113281 12.164062 27.113281 27.117187v13.582031c0 3.238282-2.625 5.863282-5.863281 5.863282zm-77.113281-11.722656h71.25v-7.722657c0-8.488281-6.902344-15.390625-15.390625-15.390625h-40.46875c-8.484375 0-15.390625 6.902344-15.390625 15.390625zm0 0" fill="#4c4372" data-original="#4c4372" class=""></path><path xmlns="http://www.w3.org/2000/svg" d="m104.136719 303.839844h402v26.453125h-402zm0 0" fill="#d3e6f8" data-original="#d3e6f8"></path><path xmlns="http://www.w3.org/2000/svg" d="m405.535156 303.839844h100.601563v26.453125h-100.601563zm0 0" fill="#a4cff2" data-original="#a4cff2"></path><path xmlns="http://www.w3.org/2000/svg" d="m104.136719 157.617188h402v26.457031h-402zm0 0" fill="#d3e6f8" data-original="#d3e6f8"></path><path xmlns="http://www.w3.org/2000/svg" d="m506.136719 336.15625h-402c-3.234375 0-5.859375-2.625-5.859375-5.863281v-26.453125c0-3.238282 2.625-5.863282 5.859375-5.863282h402c3.238281 0 5.863281 2.625 5.863281 5.863282v26.453125c0 3.238281-2.625 5.863281-5.863281 5.863281zm-396.136719-11.726562h390.273438v-14.726563h-390.273438zm0 0" fill="#4c4372" data-original="#4c4372" class=""></path><path xmlns="http://www.w3.org/2000/svg" d="m405.535156 157.617188h100.601563v26.457031h-100.601563zm0 0" fill="#a4cff2" data-original="#a4cff2"></path><path xmlns="http://www.w3.org/2000/svg" d="m506.136719 189.933594h-402c-3.234375 0-5.859375-2.625-5.859375-5.859375v-26.453125c0-3.238282 2.625-5.863282 5.859375-5.863282h402c3.238281 0 5.863281 2.625 5.863281 5.863282v26.453125c0 3.234375-2.625 5.859375-5.863281 5.859375zm-396.136719-11.722656h390.273438v-14.730469h-390.273438zm0 0" fill="#4c4372" data-original="#4c4372" class=""></path></g></svg>