<svg xmlns="http://www.w3.org/2000/svg" version="1.1" xmlns:xlink="http://www.w3.org/1999/xlink" xmlns:svgjs="http://svgjs.com/svgjs" width="512" height="512" x="0" y="0" viewBox="0 0 511.999 511" style="enable-background:new 0 0 512 512" xml:space="preserve" class=""><g><path xmlns="http://www.w3.org/2000/svg" d="m463 207.5c0 114.324219-92.675781 207-207 207s-207-92.675781-207-207 92.675781-207 207-207 207 92.675781 207 207zm0 0" fill="#f0c48a" data-original="#f0c48a"></path><path xmlns="http://www.w3.org/2000/svg" d="m5.863281 241.015625h500.273438v91.996094h-500.273438zm0 0" fill="#fd919e" data-original="#fd919e"></path><path xmlns="http://www.w3.org/2000/svg" d="m419.203125 241.015625h86.933594v91.996094h-86.933594zm0 0" fill="#e8677d" data-original="#e8677d" class=""></path><path xmlns="http://www.w3.org/2000/svg" d="m506.136719 338.875h-500.273438c-3.238281 0-5.863281-2.625-5.863281-5.863281v-91.996094c0-3.238281 2.625-5.863281 5.863281-5.863281h500.273438c3.238281 0 5.863281 2.625 5.863281 5.863281v91.996094c0 3.238281-2.625 5.863281-5.863281 5.863281zm-494.410157-11.726562h488.546876v-80.269532h-488.546876zm0 0" fill="#4c4372" data-original="#4c4372" class=""></path><path xmlns="http://www.w3.org/2000/svg" d="m93.425781 241.015625 26.203125-38.691406c3.855469-5.695313 9.75-9.691407 16.464844-11.167969l103.625-22.808594 108.304688-115.996094 70.550781 69.019532-96.625 108.042968-1.152344 42.699219c-.246094 8.996094-3.941406 17.550781-10.328125 23.886719l-58.757812 58.332031c-11.195313 11.113281-29.273438 11.082031-40.425782-.074219-6.839844-6.835937-9.765625-16.664062-7.777344-26.125l7.054688-33.660156c5.78125-27.558594-15.253906-53.457031-43.410156-53.457031zm0 0" fill="#d3e6f8" data-original="#d3e6f8"></path><path xmlns="http://www.w3.org/2000/svg" d="m400.839844 104.023438-96.441406 107.839843-1.15625 42.699219c-.242188 8.992188-3.941407 17.546875-10.324219 23.886719l-58.757813 58.332031c-8.039062 7.976562-19.617187 10.210938-29.636718 6.710938 1.398437 3.992187 3.679687 7.683593 6.761718 10.765624 11.152344 11.15625 29.230469 11.191407 40.425782.074219l58.757812-58.328125c6.386719-6.339844 10.085938-14.894531 10.328125-23.890625l1.152344-42.699219 96.625-108.042968zm0 0" fill="#a4cff2" data-original="#a4cff2"></path><path xmlns="http://www.w3.org/2000/svg" d="m231.535156 368.507812c-9.21875 0-17.882812-3.585937-24.398437-10.101562-8.265625-8.269531-11.769531-20.035156-9.367188-31.476562l7.054688-33.660157c2.390625-11.398437-.449219-23.121093-7.792969-32.164062-7.34375-9.039063-18.234375-14.226563-29.878906-14.226563h-73.726563c-2.167969 0-4.164062-1.199218-5.179687-3.117187-1.015625-1.914063-.890625-4.238281.324218-6.035157l26.203126-38.6875c4.71875-6.96875 11.84375-11.800781 20.0625-13.609374l101.839843-22.417969 107.0625-114.660157c1.078125-1.152343 2.574219-1.824218 4.152344-1.859374 1.566406-.046876 3.101563.566406 4.230469 1.671874l70.550781 69.015626c2.242187 2.195312 2.359375 5.761718.273437 8.101562l-95.191406 106.4375-1.097656 40.554688c-.285156 10.550781-4.566406 20.453124-12.058594 27.890624l-58.757812 58.328126c-6.503906 6.460937-15.136719 10.015624-24.304688 10.015624zm-127.058594-133.355468h62.675782c15.195312 0 29.402344 6.765625 38.980468 18.5625 9.582032 11.792968 13.285157 27.089844 10.167969 41.960937l-7.058593 33.660157c-1.582032 7.550781.730468 15.320312 6.1875 20.777343 4.300781 4.300781 10.019531 6.671875 16.105468 6.671875 6.050782 0 11.75-2.347656 16.042969-6.613281l58.761719-58.332031c5.339844-5.300782 8.390625-12.363282 8.597656-19.882813l1.152344-42.703125c.039062-1.386718.566406-2.714844 1.488281-3.75l92.890625-103.863281-62.253906-60.898437-104.210938 111.605468c-.8125.867188-1.863281 1.46875-3.023437 1.722656l-103.625 22.808594c-5.273438 1.160156-9.847657 4.261719-12.875 8.734375zm0 0" fill="#4c4372" data-original="#4c4372" class=""></path></g></svg>