<svg xmlns="http://www.w3.org/2000/svg" version="1.1" xmlns:xlink="http://www.w3.org/1999/xlink" xmlns:svgjs="http://svgjs.com/svgjs" width="512" height="512" x="0" y="0" viewBox="0 0 510 510" style="enable-background:new 0 0 512 512" xml:space="preserve" class=""><g><g xmlns="http://www.w3.org/2000/svg"><path d="m40.732 217.5h-40.732v30h30v150l13.333 10 16.667-10v-156.644l75-46.429v143.073l14 10 16-10v-161.644l75-46.428v148.072l8.167 10 6.833-10 10-91-10-101.642z" fill="#4a5f77" data-original="#4a5f77" class=""></path><path d="m355.732 22.5-100.732 62.358v192.642l7.833 10 7.167-10v-166.644l75-46.428v153.072l15.167 10 14.833-10v-165h75v165l14.667 10 15.333-10v-165h30v-30z" fill="#36485b" data-original="#36485b"></path><path d="m210 277.5v60h-105v60h-105v90h255l10-91.667-10-118.333z" fill="#5ad0f4" data-original="#5ad0f4" class=""></path><path d="m510 217.5h-195v60h-60v210h255z" fill="#4994ff" data-original="#4994ff" class=""></path></g></g></svg>