<svg xmlns="http://www.w3.org/2000/svg" version="1.1" xmlns:xlink="http://www.w3.org/1999/xlink" xmlns:svgjs="http://svgjs.com/svgjs" width="512" height="512" x="0" y="0" viewBox="0 0 512 512" style="enable-background:new 0 0 512 512" xml:space="preserve" class=""><g><g xmlns="http://www.w3.org/2000/svg"><path d="m512 256c0 40.96-9.62 79.67-26.73 114-41.93 84.17-128.85 77.087-229.27 77.087s-187.34 7.083-229.27-77.087c-17.11-34.33-26.73-73.04-26.73-114 0-141.38 114.62-256 256-256s256 114.62 256 256z" fill="#f7d857" data-original="#f7d857" class=""></path><path d="m485.27 370c-41.93 84.17-128.85 142-229.27 142h-107.57c-81.2 0-132.3-72.82-121.7-142 3.69-24.17 14.92-47.9 35.04-67.92l132.44-131.82 17.18-17.1h89.22l17.18 17.1 132.44 131.82c20.12 20.02 31.35 43.75 35.04 67.92z" fill="#626972" data-original="#626972"></path><g fill="#515860"><path d="m298.134 153.158 74.738 117.47c2.485 3.905-3.014 7.904-5.964 4.337l-97.409-117.812z" fill="#515860" data-original="#515860" class=""></path><path d="m274.581 157.153-15.121 136.616c-.457 4.131-6.463 4.131-6.92 0l-15.121-136.616" fill="#515860" data-original="#515860" class=""></path><path d="m317.79 170.26h-123.58l17.18-17.1h89.22z" fill="#515860" data-original="#515860" class=""></path><path d="m118.47 302.078c-62.45 77.31-18.43 209.92 69.68 209.92h-39.72c-109.59 0-164.34-132.61-86.66-209.92l149.61-148.92h27.38z" fill="#515860" data-original="#515860" class=""></path></g><g><path d="m339.83 35.612-39.15 90.44h-89.36l-39.15-90.44c-4.14-9.55 5.72-19.15 15.16-14.77l25.75 11.96 8.05 3.74c4.38 2.03 9.58.23 11.76-4.08l13.37-26.47c4.03-7.99 15.45-7.99 19.48 0l13.37 26.47c2.18 4.31 7.38 6.11 11.76 4.08l33.8-15.7c9.44-4.38 19.3 5.22 15.16 14.77z" fill="#626972" data-original="#626972"></path><path d="m237.22 126.052h-25.9l-39.15-90.44c-4.14-9.55 5.72-19.15 15.16-14.77l25.75 11.96z" fill="#515860" data-original="#515860" class=""></path></g><path d="m303.899 120.97h-95.798c-9.992 0-18.093 8.1-18.093 18.093 0 9.992 8.1 18.093 18.093 18.093h95.798c9.992 0 18.093-8.1 18.093-18.093 0-9.992-8.101-18.093-18.093-18.093z" fill="#626972" data-original="#626972"></path><path d="m230.828 151.853c3.27 3.28 7.79 5.3 12.79 5.3h-35.52c-5 0-9.52-2.02-12.79-5.3-3.27-3.27-5.3-7.8-5.3-12.79 0-9.99 8.1-18.09 18.09-18.09h35.52c-9.99 0-18.09 8.1-18.09 18.09 0 4.99 2.03 9.52 5.3 12.79z" fill="#515860" data-original="#515860" class=""></path></g></g></svg>