<svg xmlns="http://www.w3.org/2000/svg" version="1.1" xmlns:xlink="http://www.w3.org/1999/xlink" xmlns:svgjs="http://svgjs.com/svgjs" width="512" height="512" x="0" y="0" viewBox="0 0 58 58" style="enable-background:new 0 0 512 512" xml:space="preserve" class=""><g><g xmlns="http://www.w3.org/2000/svg" id="Page-1" fill="none" fill-rule="evenodd"><g id="035---City-Route" fill-rule="nonzero"><path id="Shape" d="m34 23h-10l-24 7v13c0 .5522847.44771525 1 1 1h6l-6.844 10.754c-.10200872.1605228-.15612486.3468072-.156.537v1.709c0 .5522847.44771525 1 1 1h56c.5522847 0 1-.4477153 1-1v-1.709c.0001249-.1901928-.0539913-.3764772-.156-.537l-6.844-10.754h6c.5522847 0 1-.4477153 1-1v-13z" fill="#547580" data-original="#547580" class=""></path><path id="Shape" d="m5.72 58h-4.72c-.55228475 0-1-.4477153-1-1v-1.709c-.00012486-.1901928.05399128-.3764772.156-.537l6.844-10.754h-6c-.55228475 0-1-.4477153-1-1l-.00000022-3h14.29000022l-9.43 16.5c-.17810397.3084703-.17868123.6883921-.00151547.9974022s.50532685.5004553.86151547.5025978z" fill="#95a5a5" data-original="#95a5a5" class=""></path><path id="Shape" d="m57 44h-6l6.844 10.754c.1020087.1605228.1561249.3468072.156.537v1.709c0 .5522847-.4477153 1-1 1h-4.72c.3561886-.0021425.6843497-.1935877.8615155-.5025978.1771657-.3090101.1765885-.6889319-.0015155-.9974022l-9.43-16.5h14.2900002l-.0000002 3c0 .5522847-.4477153 1-1 1z" fill="#95a5a5" data-original="#95a5a5" class=""></path><path id="Rectangle-path" d="m0 4h20v26h-20z" fill="#67b9cc" data-original="#67b9cc" class=""></path><path id="Shape" d="m24 0v23l-4 7v-26z" fill="#2fa8cc" data-original="#2fa8cc" class=""></path><path id="Shape" d="m24 0-4 4h-20l5.75-3.83c.16247305-.1098407.35388401-.16900409.55-.17z" fill="#bdc3c7" data-original="#bdc3c7"></path><path id="Shape" d="m38 4v26l-4-7v-23z" fill="#f0c419" data-original="#f0c419"></path><path id="Shape" d="m58 4h-20l-4-4h17.7c.196116.00099591.3875269.0601593.55.17z" fill="#bdc3c7" data-original="#bdc3c7"></path><g fill="#f3d55b"><path id="Rectangle-path" d="m38 4h20v26h-20z" fill="#f3d55b" data-original="#f3d55b" class=""></path><path id="Shape" d="m29 30c-.5522847 0-1-.4477153-1-1v-2c0-.5522847.4477153-1 1-1s1 .4477153 1 1v2c0 .5522847-.4477153 1-1 1z" fill="#f3d55b" data-original="#f3d55b" class=""></path><path id="Shape" d="m29 37c-.5522847 0-1-.4477153-1-1v-3c0-.5522847.4477153-1 1-1s1 .4477153 1 1v3c0 .5522847-.4477153 1-1 1z" fill="#f3d55b" data-original="#f3d55b" class=""></path><path id="Shape" d="m29 45c-.5522847 0-1-.4477153-1-1v-4c0-.5522847.4477153-1 1-1s1 .4477153 1 1v4c0 .5522847-.4477153 1-1 1z" fill="#f3d55b" data-original="#f3d55b" class=""></path><path id="Shape" d="m29 55c-.5522847 0-1-.4477153-1-1v-5c0-.5522847.4477153-1 1-1s1 .4477153 1 1v5c0 .5522847-.4477153 1-1 1z" fill="#f3d55b" data-original="#f3d55b" class=""></path><path id="Shape" d="m11 36h-3c-.55228475 0-1-.4477153-1-1s.44771525-1 1-1h3c.5522847 0 1 .4477153 1 1s-.4477153 1-1 1z" fill="#f3d55b" data-original="#f3d55b" class=""></path><path id="Shape" d="m4 36h-3c-.55228475 0-1-.4477153-1-1s.44771525-1 1-1h3c.55228475 0 1 .4477153 1 1s-.44771525 1-1 1z" fill="#f3d55b" data-original="#f3d55b" class=""></path><path id="Shape" d="m18 36h-3c-.5522847 0-1-.4477153-1-1s.4477153-1 1-1h3c.5522847 0 1 .4477153 1 1s-.4477153 1-1 1z" fill="#f3d55b" data-original="#f3d55b" class=""></path><path id="Shape" d="m43 36h-3c-.5522847 0-1-.4477153-1-1s.4477153-1 1-1h3c.5522847 0 1 .4477153 1 1s-.4477153 1-1 1z" fill="#f3d55b" data-original="#f3d55b" class=""></path><path id="Shape" d="m50 36h-3c-.5522847 0-1-.4477153-1-1s.4477153-1 1-1h3c.5522847 0 1 .4477153 1 1s-.4477153 1-1 1z" fill="#f3d55b" data-original="#f3d55b" class=""></path><path id="Shape" d="m57 36h-3c-.5522847 0-1-.4477153-1-1s.4477153-1 1-1h3c.5522847 0 1 .4477153 1 1s-.4477153 1-1 1z" fill="#f3d55b" data-original="#f3d55b" class=""></path></g><path id="Shape" d="m9 23h2c.5522847 0 1 .4477153 1 1v6h-4v-6c0-.5522847.44771525-1 1-1z" fill="#7f6e5d" data-original="#7f6e5d" class=""></path><path id="Shape" d="m47 23h2c.5522847 0 1 .4477153 1 1v6h-4v-6c0-.5522847.4477153-1 1-1z" fill="#7f6e5d" data-original="#7f6e5d" class=""></path><rect id="Rectangle-path" fill="#b0d3f0" height="4" rx="1" width="4" x="4" y="16" data-original="#b0d3f0" class=""></rect><rect id="Rectangle-path" fill="#b0d3f0" height="4" rx="1" width="4" x="12" y="16" data-original="#b0d3f0" class=""></rect><rect id="Rectangle-path" fill="#b0d3f0" height="4" rx="1" width="4" x="42" y="16" data-original="#b0d3f0" class=""></rect><rect id="Rectangle-path" fill="#b0d3f0" height="4" rx="1" width="4" x="50" y="16" data-original="#b0d3f0" class=""></rect><rect id="Rectangle-path" fill="#b0d3f0" height="4" rx="1" width="4" x="4" y="8" data-original="#b0d3f0" class=""></rect><rect id="Rectangle-path" fill="#b0d3f0" height="4" rx="1" width="4" x="12" y="8" data-original="#b0d3f0" class=""></rect><rect id="Rectangle-path" fill="#b0d3f0" height="4" rx="1" width="4" x="42" y="8" data-original="#b0d3f0" class=""></rect><rect id="Rectangle-path" fill="#b0d3f0" height="4" rx="1" width="4" x="50" y="8" data-original="#b0d3f0" class=""></rect></g></g></g></svg>