<svg xmlns="http://www.w3.org/2000/svg" version="1.1" xmlns:xlink="http://www.w3.org/1999/xlink" xmlns:svgjs="http://svgjs.com/svgjs" width="512" height="512" x="0" y="0" viewBox="0 0 512 512" style="enable-background:new 0 0 512 512" xml:space="preserve" class=""><g>
<polyline xmlns="http://www.w3.org/2000/svg" style="" points="42.32,508.907 161.689,3.094 350.31,3.094 469.68,508.907 " fill="#66686d" data-original="#66686d" class=""></polyline>
<g xmlns="http://www.w3.org/2000/svg">
	<polyline style="" points="512,508.907 368.989,3.094 350.31,3.094 469.68,508.907  " fill="#ea3d3d" data-original="#ea3d3d" class=""></polyline>
	<polyline style="" points="0,508.907 143.011,3.094 161.689,3.094 42.32,508.907  " fill="#ea3d3d" data-original="#ea3d3d" class=""></polyline>
</g>
<g xmlns="http://www.w3.org/2000/svg">
	<polygon style="" points="269.461,40.699 242.539,40.699 243.695,3.093 268.305,3.093  " fill="#e8eaef" data-original="#e8eaef"></polygon>
	<polygon style="" points="272.093,126.171 239.907,126.171 241.94,60.147 270.06,60.147  " fill="#e8eaef" data-original="#e8eaef"></polygon>
	<polygon style="" points="275.18,226.342 236.82,226.342 239.143,150.987 272.857,150.987  " fill="#e8eaef" data-original="#e8eaef"></polygon>
	<polygon style="" points="279.082,353.312 232.918,353.312 235.747,261.367 276.253,261.367  " fill="#e8eaef" data-original="#e8eaef"></polygon>
	<polygon style="" points="283.871,508.906 228.129,508.906 231.556,397.617 280.444,397.617  " fill="#e8eaef" data-original="#e8eaef"></polygon>
</g>
<g xmlns="http://www.w3.org/2000/svg">
</g>
<g xmlns="http://www.w3.org/2000/svg">
</g>
<g xmlns="http://www.w3.org/2000/svg">
</g>
<g xmlns="http://www.w3.org/2000/svg">
</g>
<g xmlns="http://www.w3.org/2000/svg">
</g>
<g xmlns="http://www.w3.org/2000/svg">
</g>
<g xmlns="http://www.w3.org/2000/svg">
</g>
<g xmlns="http://www.w3.org/2000/svg">
</g>
<g xmlns="http://www.w3.org/2000/svg">
</g>
<g xmlns="http://www.w3.org/2000/svg">
</g>
<g xmlns="http://www.w3.org/2000/svg">
</g>
<g xmlns="http://www.w3.org/2000/svg">
</g>
<g xmlns="http://www.w3.org/2000/svg">
</g>
<g xmlns="http://www.w3.org/2000/svg">
</g>
<g xmlns="http://www.w3.org/2000/svg">
</g>
</g></svg>