<svg xmlns="http://www.w3.org/2000/svg" version="1.1" xmlns:xlink="http://www.w3.org/1999/xlink" xmlns:svgjs="http://svgjs.com/svgjs" width="512" height="512" x="0" y="0" viewBox="0 0 512 512" style="enable-background:new 0 0 512 512" xml:space="preserve" class=""><g><g xmlns="http://www.w3.org/2000/svg" id="XMLID_1_"><g id="XMLID_3609_"><g id="XMLID_1826_"><path id="XMLID_1827_" d="m427 306h10v102h-10z" fill="#ebeadf" data-original="#ebeadf" class=""></path></g><g id="XMLID_1824_"><path id="XMLID_1825_" d="m381.2 352h102v10h-102z" fill="#ebeadf" transform="matrix(.707 .707 -.707 .707 379.017 -201.049)" data-original="#ebeadf" class=""></path></g><g id="XMLID_1822_"><path id="XMLID_1823_" d="m381 352h102v10h-102z" fill="#ebeadf" data-original="#ebeadf" class=""></path></g><g id="XMLID_1820_"><path id="XMLID_1821_" d="m427.2 306h10v102h-10z" fill="#ebeadf" transform="matrix(.707 .707 -.707 .707 379.056 -201.052)" data-original="#ebeadf" class=""></path></g><path id="XMLID_1817_" d="m432.6 282.8c-41.2 0-74.6 33.4-74.6 74.6s33.4 74.6 74.6 74.6 74.6-33.4 74.6-74.6-33.4-74.6-74.6-74.6zm0 121.6c-26 0-47-21-47-47s21-47 47-47 47 21 47 47-21 47-47 47z" fill="#323d2c" data-original="#323d2c" class=""></path><path id="XMLID_1816_" d="m434.3 282.8c-4.6-.1-9.2.2-13.6.9-6.7 1.1-6 11 .8 11.1h1.1c39.4 1.1 71.5 33.2 72.6 72.5v1.1c.1 6.8 10 7.6 11.1.8.7-4.4 1-8.9.9-13.6-.9-39.6-33.2-71.9-72.9-72.8z" fill="#485143" data-original="#485143"></path><path id="XMLID_1904_" d="m449.8 401.1c-6.6 2.6-13.9 3.7-21.5 3.1-22.4-2-40.5-20.1-42.5-42.5-.7-7.6.5-14.9 3.1-21.5.6-1.5.9-3.1.9-4.7 0-.1 0-.2 0-.3.4-15.2-20.8-19.7-26.5-5.5-3.8 9.4-5.7 19.7-5.3 30.5 1.4 38.8 33 70.4 71.8 71.8 10.8.4 21.1-1.5 30.5-5.3 14.1-5.7 9.7-26.9-5.5-26.5-.1 0-.2 0-.3 0-1.6 0-3.2.4-4.7.9z" fill="#1c2617" data-original="#1c2617" class=""></path><path id="XMLID_629_" d="m397.1 326.6c4.6-5.3 10.3-9.5 16.9-12.4l-13.7-24.1c-7.1 3.4-13.5 7.9-19.2 13.3z" fill="#1c2617" data-original="#1c2617" class=""></path><g id="XMLID_2215_"><path id="XMLID_2217_" d="m9.3 249.1-8.7-4.9 20.2-36c.4-.8 1.1-1.4 1.8-1.9l38-22.3 5.1 8.6-36.8 21.6z" fill="#323d2c" data-original="#323d2c" class=""></path></g><g id="XMLID_757_"><path id="XMLID_760_" d="m356.1 164.1-12.7-21.1h-34.4v-10h37.2c1.8 0 3.4.9 4.3 2.4l14.2 23.5z" fill="#323d2c" data-original="#323d2c" class=""></path></g><g id="XMLID_1911_"><path id="XMLID_1912_" d="m74 306h10v102h-10z" fill="#ebeadf" data-original="#ebeadf" class=""></path></g><g id="XMLID_1909_"><path id="XMLID_1910_" d="m28.2 352h102v10h-102z" fill="#ebeadf" transform="matrix(.707 .707 -.707 .707 275.626 48.56)" data-original="#ebeadf" class=""></path></g><g id="XMLID_1907_"><path id="XMLID_1908_" d="m28 352h102v10h-102z" fill="#ebeadf" data-original="#ebeadf" class=""></path></g><g id="XMLID_1905_"><path id="XMLID_1906_" d="m74.2 306h10v102h-10z" fill="#ebeadf" transform="matrix(.707 .707 -.707 .707 275.647 48.574)" data-original="#ebeadf" class=""></path></g><path id="XMLID_1901_" d="m79.6 282.8c-41.2 0-74.6 33.4-74.6 74.6s33.4 74.6 74.6 74.6 74.6-33.4 74.6-74.6-33.4-74.6-74.6-74.6zm0 121.6c-26 0-47-21-47-47s21-47 47-47 47 21 47 47-21 47-47 47z" fill="#323d2c" data-original="#323d2c" class=""></path><path id="XMLID_1914_" d="m96.8 401.1c-6.6 2.6-13.9 3.7-21.5 3.1-22.4-2-40.5-20.1-42.5-42.5-.7-7.6.5-14.9 3.1-21.5.6-1.5.9-3.1.9-4.7 0-.1 0-.2 0-.3.4-15.2-20.8-19.7-26.5-5.5-3.7 9.3-5.7 19.6-5.3 30.4 1.4 38.9 33 70.5 71.8 71.9 10.8.4 21.1-1.5 30.5-5.3 14.1-5.7 9.7-26.9-5.5-26.5-.1 0-.2 0-.3 0-1.6 0-3.2.4-4.7.9z" fill="#1c2617" data-original="#1c2617" class=""></path><path id="XMLID_625_" d="m79.7 282.8c-3.3 0-6.7.2-9.7.7v28c3-.7 6.3-1 9.7-1 26 0 47 21.3 47 47.3 0 3.5-.4 6.3-1.1 10.3h28c.4-4 .7-6.9.7-10.3-.1-41.4-33.4-75-74.6-75z" fill="#1c2617" data-original="#1c2617" class=""></path><path id="XMLID_1625_" d="m172.2 357.4h-93v-96.4h.4c51.1 0 92.6 41.5 92.6 92.6z" fill="#db3328" data-original="#db3328"></path><path id="XMLID_590_" d="m79.6 261h-.4v14h18.6c2.6 0 5.1.7 7.3 1.9 10 5.7 9.7 20.3-.5 25.6l-25.4 13.3v41.2h93v-3.4c0-51.2-41.5-92.6-92.6-92.6z" fill="#b5100b" data-original="#b5100b"></path><path id="XMLID_1718_" d="m213.7 256-134.5 77v24.4h134.5z" fill="#c4c1ab" data-original="#c4c1ab"></path><g id="XMLID_525_"><path id="XMLID_581_" d="m201 345h-99.8c-2.3 0-4.3-1.6-4.9-3.8s.5-4.5 2.5-5.6l85.7-45.5 4.7 8.8-67.9 36.1h79.7z" fill="#ebeadf" data-original="#ebeadf" class=""></path></g><path id="XMLID_1720_" d="m172.2 192h122.8v165h-98.8l-34.1-101-137.1-86v-29h76.9l23.3 23z" fill="#84444d" data-original="#84444d"></path><path id="XMLID_523_" d="m25.2 170h40.5l137 79 43.2.1 27-36.1h22.1v144h-98.8l-34-101z" fill="#60262f" data-original="#60262f"></path><g id="XMLID_1716_"><path id="XMLID_1717_" d="m418.9 353.8-51.7-88.3 17.3-10.1 51.7 88.3c2.8 4.8 1.2 10.9-3.6 13.7-4.8 2.8-10.9 1.2-13.7-3.6z" fill="#c4c1ab" data-original="#c4c1ab"></path></g><path id="XMLID_2231_" d="m172.2 192-47-28c0 13 6.9 25.1 18 31.7l29 17.3h61v-21z" fill="#323d2c" data-original="#323d2c" class=""></path><path id="XMLID_1719_" d="m346.6 213h-113.4v-21c0-12.4 8.9-23.1 21.2-25.3l61.9-11.2c15.8-2.9 30.4 9.3 30.4 25.3v32.2z" fill="#c4c1ab" data-original="#c4c1ab"></path><path id="XMLID_519_" d="m315.9 155.4-61.7 11.2c-10.7 1.9-18.8 10.4-20.7 20.8 3.8-5.2 9.5-9 16.2-10.2l61.9-11.2c15.8-2.9 30.4 9.3 30.4 25.3v21.7h4v-32.2c0-16.1-14.3-28.2-30.1-25.4z" fill="#ebeadf" data-original="#ebeadf" class=""></path><path id="XMLID_592_" d="m346.2 180.8c0-6.6-2.2-12.5-6.2-17l-38 24.9c-4.2 2.8-9.2 4.3-14.3 4.3h-8.4c-14.4 0-26.1-11.7-26.1-26.1-11.6 2.7-20 13-20 25.1v21h113z" fill="#747e6c" data-original="#747e6c"></path><g id="XMLID_1713_"><path id="XMLID_1994_" d="m25 152h40v10h-40z" fill="#db3328" data-original="#db3328"></path></g><path id="XMLID_1723_" d="m340.2 80h17.9c11.6 0 22.6 4.7 30.7 13l86.4 89-16.7 30h-21.3l-103 122 6.3 50h-168.3l118.7-171 81.6-64.3z" fill="#db3328" data-original="#db3328"></path><path id="XMLID_1714_" d="m358.1 80 40.5 50.2c12.1 15 30.4 23.7 49.6 23.7l-59.4-61c-8-8.2-19.1-12.9-30.7-12.9z" fill="#c4c1ab" data-original="#c4c1ab"></path><path id="XMLID_333_" d="m372.2 149c9.9 0 15.9-11 10.6-19.3l-31.9-49.7h-10.7z" fill="#b5100b" data-original="#b5100b"></path><path id="XMLID_397_" d="m403.4 182-36.2 30-33 122 103-122z" fill="#b5100b" data-original="#b5100b"></path><path id="XMLID_1715_" d="m418.9 212h39.6l-38.3-30h-16.8z" fill="#f3e630" data-original="#f3e630"></path><path id="XMLID_758_" d="m240.2 357h69l-4-39h-47v16.5z" fill="#b5100b" data-original="#b5100b"></path><path id="XMLID_2242_" d="m258.2 318 51 39 31.3 27h-168.3l61.2-88.2z" fill="#b5100b" data-original="#b5100b"></path><g id="XMLID_2190_"><path id="XMLID_2250_" d="m314.7 221.6c-1.5 0-2.9-.7-3.9-1.9-1.7-2.2-1.3-5.3.8-7l69.5-54.6c2.2-1.7 5.3-1.3 7 .8 1.7 2.2 1.3 5.3-.8 7l-69.5 54.6c-.9.7-2 1.1-3.1 1.1z" fill="#e67368" data-original="#e67368" class=""></path></g></g></g></g></svg>