<svg xmlns="http://www.w3.org/2000/svg" version="1.1" xmlns:xlink="http://www.w3.org/1999/xlink" xmlns:svgjs="http://svgjs.com/svgjs" width="512" height="512" x="0" y="0" viewBox="0 0 512 512" style="enable-background:new 0 0 512 512" xml:space="preserve" class=""><g><g xmlns="http://www.w3.org/2000/svg"><g><g><g><path d="m328.078 171.102v47.183c0 3.531.898 7.004 2.611 10.092l17.582 31.709c2.199 3.965 3.042 8.54 2.403 13.028l-10.318 72.427c-.711 4.992-3.21 9.556-7.033 12.844l-13.038 11.214c-4.26 3.664-6.857 8.895-7.202 14.503l-2.694 43.841c-.675 10.978-9.775 19.537-20.774 19.537h-72.743c-10.999 0-20.099-8.558-20.774-19.537l-2.782-45.284c-.291-4.743-2.197-9.243-5.4-12.753l-9.398-10.299c-3.696-4.05-5.645-9.396-5.422-14.875l2.337-57.468c.097-2.375.599-4.716 1.486-6.921l13.736-34.148c1.445-3.593 1.859-7.519 1.196-11.334l-11.092-63.76h-180.759v330.899c0 5.523 4.477 10 10 10h492c5.523 0 10-4.477 10-10v-330.898z" fill="#cf9875" data-original="#cf9875" class=""></path></g><g><g><path d="m163.597 246.196-13.736 34.148c-.887 2.205-1.39 4.547-1.486 6.922l-2.337 57.467c-.223 5.479 1.726 10.824 5.422 14.875l9.398 10.299c3.203 3.51 5.108 8.01 5.4 12.753l2.782 45.284c.675 10.978 9.775 19.537 20.774 19.537h27.057c-10.999 0-20.099-8.558-20.774-19.537l-2.782-45.284c-.291-4.743-2.197-9.243-5.4-12.753l-9.398-10.299c-3.696-4.05-5.645-9.396-5.422-14.875l2.337-57.467c.097-2.375.599-4.716 1.486-6.922l13.736-34.148c1.445-3.593 1.859-7.519 1.196-11.334l-11.092-63.76h-27.057l11.092 63.76c.664 3.815.25 7.741-1.196 11.334z" fill="#c7865b" data-original="#c7865b" class=""></path></g><g><path d="m484.943 171.102v340.898h17.057c5.523 0 10-4.477 10-10v-330.898z" fill="#c7865b" data-original="#c7865b" class=""></path></g></g><g><path d="m165.105 129.476h-155.105c-5.523 0-10 4.477-10 10v31.626h180.758l-5.8-33.34c-.834-4.79-4.991-8.286-9.853-8.286z" fill="#9cd169" data-original="#9cd169"></path></g><g><path d="m165.105 129.476h-18.679l7.242 41.626h27.089l-5.8-33.34c-.833-4.79-4.99-8.286-9.852-8.286z" fill="#8cc951" data-original="#8cc951" class=""></path></g><g><path d="m328.078 171.102h183.922v-31.626c0-5.523-4.477-10-10-10h-163.922c-5.523 0-10 4.477-10 10z" fill="#9cd169" data-original="#9cd169"></path></g><g><path d="m484.943 129.476v41.626h27.057v-31.626c0-5.523-4.477-10-10-10z" fill="#8cc951" data-original="#8cc951" class=""></path></g></g><g><g><path d="m159.755 64.784c0 19.445-15.763 35.209-35.209 35.209s-35.208-15.764-35.208-35.209 15.764-64.784 35.209-64.784 35.208 45.339 35.208 64.784z" fill="#9cd169" data-original="#9cd169"></path></g><g><path d="m128.47.617c8.52 14.877 14.029 35.416 14.029 46.91 0 19.445-15.763 35.209-35.208 35.209-5.259 0-10.244-1.161-14.725-3.228 5.575 12.089 17.794 20.484 31.981 20.484 19.445 0 35.209-15.763 35.209-35.209-.001-18.118-13.687-58.711-31.286-64.166z" fill="#8cc951" data-original="#8cc951" class=""></path></g></g><g><g><path d="m89.338 64.784c0 19.445-15.763 35.209-35.209 35.209s-35.208-15.764-35.208-35.209 15.763-64.784 35.209-64.784 35.208 45.339 35.208 64.784z" fill="#9cd169" data-original="#9cd169"></path></g><g><path d="m58.053.617c8.52 14.877 14.029 35.416 14.029 46.91 0 19.445-15.763 35.209-35.208 35.209-5.259 0-10.244-1.161-14.725-3.228 5.575 12.089 17.794 20.484 31.981 20.484 19.445 0 35.209-15.763 35.209-35.209-.001-18.118-13.688-58.711-31.286-64.166z" fill="#8cc951" data-original="#8cc951" class=""></path></g></g><g><path d="m376.332 62.874h87.415v66.602h-87.415z" fill="#e6f7fe" data-original="#e6f7fe"></path></g><g><path d="m438.771 62.874h24.976v66.602h-24.976z" fill="#d3effd" data-original="#d3effd"></path></g><g><path d="m423.975 13.828 44.31 38.518c4.189 3.641 1.613 10.528-3.936 10.528h-88.62c-5.55 0-8.125-6.887-3.936-10.528l44.31-38.518c2.257-1.962 5.615-1.962 7.872 0z" fill="#e27f86" data-original="#e27f86"></path></g><g><path d="m435.305 23.677c-3.949 10.602-10.899 21.483-20.541 31.125-2.946 2.947-6.011 5.636-9.146 8.073h58.731c5.55 0 8.125-6.887 3.936-10.528z" fill="#df646e" data-original="#df646e"></path></g></g><g><circle cx="276.074" cy="182.477" fill="#b36d3c" r="16.65" data-original="#b36d3c" class=""></circle></g><g><path d="m430.701 314.685-49.78-5.305-36.04-55.405 3.389 6.112c2.198 3.965 3.042 8.539 2.403 13.028l-2.019 14.17 21.638 33.265c1.23 1.892 3.248 3.129 5.492 3.368l13.032 1.389-6.993 27.231c-1.03 4.012 1.387 8.1 5.399 9.13.626.161 1.253.238 1.87.238 3.342 0 6.39-2.25 7.26-5.636l7.539-29.356 25.22 2.688c.271.029.538.042.804.042 3.785 0 7.039-2.857 7.449-6.706.439-4.12-2.544-7.814-6.663-8.253z" fill="#b36d3c" data-original="#b36d3c" class=""></path></g><g><path d="m111.299 358.916c.717 0 1.445-.104 2.166-.321l48.639-14.65c2.08-.626 3.786-2.124 4.678-4.105l7.161-15.927 1.49-36.647c.072-1.774.372-3.529.888-5.222l-21.817 48.526-12.167 3.665-13.103-28.111c-1.75-3.754-6.21-5.38-9.967-3.629-3.754 1.75-5.379 6.212-3.629 9.966l12.186 26.145-18.685 5.628c-3.966 1.194-6.213 5.378-5.019 9.344.978 3.244 3.956 5.338 7.179 5.338z" fill="#b36d3c" data-original="#b36d3c" class=""></path></g><g><path d="m124.547 57.021c-4.143 0-7.5 3.358-7.5 7.5v64.955h15v-64.955c0-4.143-3.358-7.5-7.5-7.5z" fill="#cf9875" data-original="#cf9875" class=""></path></g><g><path d="m54.13 57.021c-4.143 0-7.5 3.358-7.5 7.5v64.955h15v-64.955c0-4.143-3.358-7.5-7.5-7.5z" fill="#cf9875" data-original="#cf9875" class=""></path></g><g><circle cx="264.325" cy="323.733" fill="#b36d3c" r="8.325" data-original="#b36d3c" class=""></circle></g><g><circle cx="459.967" cy="377.548" fill="#b36d3c" r="8.325" data-original="#b36d3c" class=""></circle></g><g><circle cx="393.664" cy="401.27" fill="#b36d3c" r="8.325" data-original="#b36d3c" class=""></circle></g><g><circle cx="447.096" cy="439.154" fill="#b36d3c" r="8.325" data-original="#b36d3c" class=""></circle></g><g><circle cx="90.728" cy="221.277" fill="#b36d3c" r="8.325" data-original="#b36d3c" class=""></circle></g><g><circle cx="45.804" cy="243.267" fill="#b36d3c" r="8.325" data-original="#b36d3c" class=""></circle></g><g><circle cx="232.488" cy="369.223" fill="#b36d3c" r="8.325" data-original="#b36d3c" class=""></circle></g><g><path d="m304.884 247.782c-4.143 0-7.5-3.358-7.5-7.5v-2.951l-1.912-.765c-3.847-1.538-5.718-5.902-4.18-9.748s5.902-5.718 9.748-4.18l2.588 1.035c5.32 2.128 8.756 7.205 8.756 12.933v3.676c0 4.142-3.358 7.5-7.5 7.5zm-6.826-10.181h.01z" fill="#c7865b" data-original="#c7865b" class=""></path></g><g><path d="m255.998 278.269c-.928 0-1.871-.173-2.784-.539l-2.587-1.035c-5.318-2.128-8.755-7.205-8.755-12.932v-3.676c0-4.142 3.357-7.5 7.5-7.5s7.5 3.358 7.5 7.5v2.951l1.914.766c3.846 1.539 5.716 5.904 4.177 9.75-1.173 2.931-3.989 4.715-6.965 4.715z" fill="#c7865b" data-original="#c7865b" class=""></path></g></g></g></svg>