<svg xmlns="http://www.w3.org/2000/svg" version="1.1" xmlns:xlink="http://www.w3.org/1999/xlink" xmlns:svgjs="http://svgjs.com/svgjs" width="512" height="512" x="0" y="0" viewBox="0 0 24 24" style="enable-background:new 0 0 512 512" xml:space="preserve" class=""><g><path xmlns="http://www.w3.org/2000/svg" d="m4 11h-1a1 1 0 0 0 0 2h1a1 1 0 0 0 0-2z" fill="#ffffff" data-original="#000000" class=""></path><path xmlns="http://www.w3.org/2000/svg" d="m4 5h-1a1 1 0 0 0 0 2h1a1 1 0 0 0 0-2z" fill="#ffffff" data-original="#000000" class=""></path><path xmlns="http://www.w3.org/2000/svg" d="m4 17h-1a1 1 0 0 0 0 2h1a1 1 0 0 0 0-2z" fill="#ffffff" data-original="#000000" class=""></path><path xmlns="http://www.w3.org/2000/svg" d="m21 11h-13a1 1 0 0 0 0 2h13a1 1 0 0 0 0-2z" fill="#ffffff" data-original="#000000" class=""></path><path xmlns="http://www.w3.org/2000/svg" d="m21 5h-13a1 1 0 0 0 0 2h13a1 1 0 0 0 0-2z" fill="#ffffff" data-original="#000000" class=""></path><path xmlns="http://www.w3.org/2000/svg" d="m21 17h-13a1 1 0 0 0 0 2h13a1 1 0 0 0 0-2z" fill="#ffffff" data-original="#000000" class=""></path></g></svg>