<svg xmlns="http://www.w3.org/2000/svg" version="1.1" xmlns:xlink="http://www.w3.org/1999/xlink" xmlns:svgjs="http://svgjs.com/svgjs" width="512" height="512" x="0" y="0" viewBox="0 0 58 58" style="enable-background:new 0 0 512 512" xml:space="preserve" class=""><g><g xmlns="http://www.w3.org/2000/svg" id="Page-1" fill="none" fill-rule="evenodd"><g id="036---Cross-Road" fill-rule="nonzero"><path id="Shape" d="m58 1v56c0 .5522847-.4477153 1-1 1h-5v-14.06c.641979-.6496897 1.0013836-1.5266371 1-2.44 0-1.9329966-1.5670034-3.5-3.5-3.5-.3423168-.001388-.6828615.0491879-1.01.15l-.74-.59c-.4729114-.3799324-.7486057-.9533767-.75-1.56v-14c.0013943-.6066233.2770886-1.1800676.75-1.56l.74-.59c.3271385.1008121.6676832.151388 1.01.15 1.9329966 0 3.5-1.5670034 3.5-3.5.0013836-.9133629-.358021-1.7903103-1-2.44v-14.06h5c.2652165 0 .5195704.10535684.7071068.29289322s.2928932.44189029.2928932.70710678z" fill="#bdc3c7" data-original="#bdc3c7" class=""></path><path id="Shape" d="m11 22v14c-.0013943.6066233-.2770886 1.1800676-.75 1.56l-.74.59c-.32713853-.1008121-.66768324-.151388-1.01-.15-1.93299662 0-3.5 1.5670034-3.5 3.5-.00138363.9133629.35802103 1.7903103 1 2.44v14.06h-5c-.55228475 0-1-.4477153-1-1v-56c0-.55228475.44771525-1 1-1h5v14.06c-.64197897.6496897-1.00138363 1.5266371-1 2.44 0 .9282577.36874894 1.8184964 1.02512627 2.4748737.65637732.6563774 1.54661602 1.0251263 2.47487373 1.0251263.34231676.001388.68286147-.0491879 1.01-.15l.74.59c.4729114.3799324.7486057.9533767.75 1.56z" fill="#bdc3c7" data-original="#bdc3c7" class=""></path><path id="Shape" d="m10.29 37.52c-.01.02-.03.03-.04.04l-.74.59c-.32713853-.1008121-.66768324-.151388-1.01-.15-1.93299662 0-3.5 1.5670034-3.5 3.5-.00138363.9133629.35802103 1.7903103 1 2.44v3.03c-2.82929418-.2582756-4.99626736-2.6289442-5-5.47.0055037-3.0352835 2.46471651-5.4944963 5.5-5.5 1.41229736-.002181 2.77058232.5425665 3.79 1.52z" fill="#95a5a5" data-original="#95a5a5" class=""></path><path id="Shape" d="m10.29 20.48c-.62433322.5986565-1.38171547 1.0407484-2.21 1.29-.51216087.1554295-1.044782.232963-1.58.23-3.03528349-.0055037-5.4944963-2.4647165-5.5-5.5-.00430158-1.4390559.56417987-2.8206817 1.58-3.84.90268845-.9427569 2.11919551-1.5225541 3.42-1.63v3.03c-.64197897.6496897-1.00138363 1.5266371-1 2.44 0 .9282577.36874894 1.8184964 1.02512627 2.4748737.65637732.6563774 1.54661602 1.0251263 2.47487373 1.0251263.34231676.001388.68286147-.0491879 1.01-.15l.74.59c.01.01.03.02.04.04z" fill="#95a5a5" data-original="#95a5a5" class=""></path><path id="Shape" d="m10.29 37.52c-.01.02-.03.03-.04.04l-.74.59c-.32713853-.1008121-.66768324-.151388-1.01-.15-1.93299662 0-3.5 1.5670034-3.5 3.5-.00138363.9133629.35802103 1.7903103 1 2.44v3.03c-2.82929418-.2582756-4.99626736-2.6289442-5-5.47.0055037-3.0352835 2.46471651-5.4944963 5.5-5.5 1.41229736-.002181 2.77058232.5425665 3.79 1.52z" fill="#95a5a5" data-original="#95a5a5" class=""></path><path id="Shape" d="m10.29 20.48c-.62433322.5986565-1.38171547 1.0407484-2.21 1.29-.51216087.1554295-1.044782.232963-1.58.23-3.03528349-.0055037-5.4944963-2.4647165-5.5-5.5-.00430158-1.4390559.56417987-2.8206817 1.58-3.84.90268845-.9427569 2.11919551-1.5225541 3.42-1.63v3.03c-.64197897.6496897-1.00138363 1.5266371-1 2.44 0 .9282577.36874894 1.8184964 1.02512627 2.4748737.65637732.6563774 1.54661602 1.0251263 2.47487373 1.0251263.34231676.001388.68286147-.0491879 1.01-.15l.74.59c.01.01.03.02.04.04z" fill="#95a5a5" data-original="#95a5a5" class=""></path><path id="Shape" d="m47.71 37.52c.01.02.03.03.04.04l.74.59c.3271385-.1008121.6676832-.151388 1.01-.15 1.9329966 0 3.5 1.5670034 3.5 3.5.0013836.9133629-.358021 1.7903103-1 2.44v3.03c2.8292942-.2582756 4.9962674-2.6289442 5-5.47-.0055037-3.0352835-2.4647165-5.4944963-5.5-5.5-1.4122974-.002181-2.7705823.5425665-3.79 1.52z" fill="#95a5a5" data-original="#95a5a5" class=""></path><path id="Shape" d="m47.71 20.48c.6243332.5986565 1.3817155 1.0407484 2.21 1.29.5121609.1554295 1.044782.232963 1.58.23 3.0352835-.0055037 5.4944963-2.4647165 5.5-5.5.0043016-1.4390559-.5641799-2.8206817-1.58-3.84-.9026884-.9427569-2.1191955-1.5225541-3.42-1.63v3.03c.641979.6496897 1.0013836 1.5266371 1 2.44 0 1.9329966-1.5670034 3.5-3.5 3.5-.3423168.001388-.6828615-.0491879-1.01-.15l-.74.59c-.01.01-.03.02-.04.04z" fill="#95a5a5" data-original="#95a5a5" class=""></path><path id="Shape" d="m10 16.5c-.00048704 1.5435664-1.01209932 2.9045709-2.49 3.35-.32713853.1008121-.66768324.151388-1.01.15-1.93299662 0-3.5-1.5670034-3.5-3.5.00875998-1.9293565 1.57064353-3.49124 3.5-3.5 1.93299662 0 3.5 1.5670034 3.5 3.5z" fill="#f0c419" data-original="#f0c419" class=""></path><path id="Shape" d="m10 41.5c0 1.9329966-1.56700338 3.5-3.5 3.5-1.92935647-.00876-3.49124002-1.5706435-3.5-3.5 0-1.9329966 1.56700338-3.5 3.5-3.5.34231676-.001388.68286147.0491879 1.01.15 1.47790068.4454291 2.48951296 1.8064336 2.49 3.35z" fill="#f0c419" data-original="#f0c419" class=""></path><path id="Shape" d="m55 16.5c0 1.9329966-1.5670034 3.5-3.5 3.5-.3423168.001388-.6828615-.0491879-1.01-.15-1.6600898-.5023134-2.7019105-2.1446707-2.4489137-3.8605406.2529969-1.7158698 1.7244935-2.9876504 3.4589137-2.9894594 1.9293565.00876 3.49124 1.5706435 3.5 3.5z" fill="#f0c419" data-original="#f0c419" class=""></path><path id="Shape" d="m55 41.5c-.00876 1.9293565-1.5706435 3.49124-3.5 3.5-1.7344202-.001809-3.2059168-1.2735896-3.4589137-2.9894594-.2529968-1.7158699.7888239-3.3582272 2.4489137-3.8605406.3271385-.1008121.6676832-.151388 1.01-.15 1.9329966 0 3.5 1.5670034 3.5 3.5z" fill="#f0c419" data-original="#f0c419" class=""></path><path id="Shape" d="m48 16.5c.000487 1.5435664 1.0120993 2.9045709 2.49 3.35l-.74.59c-.4729114.3799324-.7486057.9533767-.75 1.56v14c.0013943.6066233.2770886 1.1800676.75 1.56l.74.59c-1.6600898.5023134-2.7019105 2.1446707-2.4489137 3.8605406.2529969 1.7158698 1.7244935 2.9876504 3.4589137 2.9894594.9434078.0043185 1.847212-.3788945 2.5-1.06v14.06h-50v-14.06c.65278798.6811055 1.55659223 1.0643185 2.5 1.06 1.73442021-.001809 3.2059168-1.2735896 3.45891366-2.9894594.25299684-1.7158699-.7888239-3.3582272-2.44891366-3.8605406l.74-.59c.47291136-.3799324.74860575-.9533767.75-1.56v-14c-.00139425-.6066233-.27708864-1.1800676-.75-1.56l-.74-.59c1.66008976-.5023134 2.7019105-2.1446707 2.44891366-3.8605406-.25299686-1.7158698-1.72449345-2.9876504-3.45891366-2.9894594-.94340777-.0043185-1.84721202.3788945-2.5 1.06v-14.06h50v14.06c-.652788-.6811055-1.5565922-1.0643185-2.5-1.06-1.9329966 0-3.5 1.5670034-3.5 3.5z" fill="#547580" data-original="#547580" class=""></path><g fill="#fff"><rect id="Rectangle-path" height="16" rx="1" width="5" x="13" y="21" fill="#ffffff" data-original="#ffffff" class=""></rect><rect id="Rectangle-path" height="16" rx="1" width="5" x="22" y="21" fill="#ffffff" data-original="#ffffff" class=""></rect><rect id="Rectangle-path" height="16" rx="1" width="5" x="31" y="21" fill="#ffffff" data-original="#ffffff" class=""></rect><rect id="Rectangle-path" height="16" rx="1" width="5" x="40" y="21" fill="#ffffff" data-original="#ffffff" class=""></rect><path id="Shape" d="m29 18c-.5522847 0-1-.4477153-1-1v-4c0-.5522847.4477153-1 1-1s1 .4477153 1 1v4c0 .5522847-.4477153 1-1 1z" fill="#ffffff" data-original="#ffffff" class=""></path><path id="Shape" d="m29 9c-.5522847 0-1-.44771525-1-1v-4c0-.55228475.4477153-1 1-1s1 .44771525 1 1v4c0 .55228475-.4477153 1-1 1z" fill="#ffffff" data-original="#ffffff" class=""></path><path id="Shape" d="m29 55c-.5522847 0-1-.4477153-1-1v-4c0-.5522847.4477153-1 1-1s1 .4477153 1 1v4c0 .5522847-.4477153 1-1 1z" fill="#ffffff" data-original="#ffffff" class=""></path><path id="Shape" d="m29 46c-.5522847 0-1-.4477153-1-1v-4c0-.5522847.4477153-1 1-1s1 .4477153 1 1v4c0 .5522847-.4477153 1-1 1z" fill="#ffffff" data-original="#ffffff" class=""></path></g></g></g></g></svg>