<svg xmlns="http://www.w3.org/2000/svg" version="1.1" xmlns:xlink="http://www.w3.org/1999/xlink" xmlns:svgjs="http://svgjs.com/svgjs" width="512" height="512" x="0" y="0" viewBox="0 0 512 512" style="enable-background:new 0 0 512 512" xml:space="preserve" class=""><g>
<g xmlns="http://www.w3.org/2000/svg">
	<g>
		<path d="M256.001,360.193c-4.805,3.512-9.822,6.682-15,9.534V512h30V369.727C265.823,366.875,260.806,363.704,256.001,360.193z" fill="#ffffff" data-original="#000000" class=""></path>
	</g>
</g>
<g xmlns="http://www.w3.org/2000/svg">
	<g>
		<path d="M394.162,119.466c-4.535-31.37-19.603-60.217-43.037-82.042C325.212,13.291,291.43,0,256.001,0    c-35.429,0-69.211,13.291-95.125,37.424c-23.434,21.825-38.501,50.672-43.037,82.042c-50.475,22.04-83.763,72.319-83.763,127.977    c0,76.979,62.627,139.605,139.605,139.605c23.727,0,46.845-6.043,67.318-17.32v-61.059l-67.279-35.375l13.962-26.553    l53.319,28.034V149.229h30v59.052l53.317-28.034L338.28,206.8l-67.279,35.376v127.552c20.473,11.277,43.591,17.32,67.318,17.32    c76.979,0,139.605-62.627,139.605-139.605C477.925,191.785,444.637,141.505,394.162,119.466z" fill="#ffffff" data-original="#000000" class=""></path>
	</g>
</g>
<g xmlns="http://www.w3.org/2000/svg">
</g>
<g xmlns="http://www.w3.org/2000/svg">
</g>
<g xmlns="http://www.w3.org/2000/svg">
</g>
<g xmlns="http://www.w3.org/2000/svg">
</g>
<g xmlns="http://www.w3.org/2000/svg">
</g>
<g xmlns="http://www.w3.org/2000/svg">
</g>
<g xmlns="http://www.w3.org/2000/svg">
</g>
<g xmlns="http://www.w3.org/2000/svg">
</g>
<g xmlns="http://www.w3.org/2000/svg">
</g>
<g xmlns="http://www.w3.org/2000/svg">
</g>
<g xmlns="http://www.w3.org/2000/svg">
</g>
<g xmlns="http://www.w3.org/2000/svg">
</g>
<g xmlns="http://www.w3.org/2000/svg">
</g>
<g xmlns="http://www.w3.org/2000/svg">
</g>
<g xmlns="http://www.w3.org/2000/svg">
</g>
</g></svg>