<svg xmlns="http://www.w3.org/2000/svg" version="1.1" xmlns:xlink="http://www.w3.org/1999/xlink" xmlns:svgjs="http://svgjs.com/svgjs" width="512" height="512" x="0" y="0" viewBox="0 0 512 512" style="enable-background:new 0 0 512 512" xml:space="preserve" class=""><g><g xmlns="http://www.w3.org/2000/svg"><path d="m162.631 110.372-15.79 4.863 16.838 54.695 14.731-8.304z" fill="#dad8db" data-original="#dad8db"></path><circle cx="99.097" cy="317.935" fill="#dad8db" r="24.774" data-original="#dad8db"></circle><path d="m412.903 218.839c-54.73 0-99.097 44.367-99.097 99.097 0 54.729 44.367 99.097 99.097 99.097s99.097-44.368 99.097-99.098c0-54.729-44.367-99.096-99.097-99.096zm0 173.419c-41.047 0-74.323-33.275-74.323-74.323s33.275-74.323 74.323-74.323 74.323 33.275 74.323 74.323-33.276 74.323-74.323 74.323z" fill="#5d5360" data-original="#5d5360"></path><path d="m412.903 235.355c-45.608 0-82.581 36.972-82.581 82.581 0 45.608 36.973 82.581 82.581 82.581s82.581-36.973 82.581-82.581c0-45.609-36.973-82.581-82.581-82.581zm0 148.645c-36.486 0-66.065-29.578-66.065-66.065s29.578-66.065 66.065-66.065 66.065 29.578 66.065 66.065-29.578 66.065-66.065 66.065z" fill="#eceaec" data-original="#eceaec"></path><path d="m99.097 218.839c-54.73 0-99.097 44.367-99.097 99.096s44.367 99.097 99.097 99.097 99.097-44.367 99.097-99.097c0-54.729-44.367-99.096-99.097-99.096zm0 173.419c-41.047 0-74.323-33.275-74.323-74.323s33.276-74.323 74.323-74.323 74.323 33.275 74.323 74.323c-.001 41.048-33.276 74.323-74.323 74.323z" fill="#5d5360" data-original="#5d5360"></path><path d="m99.097 235.355c-45.608 0-82.581 36.972-82.581 82.581 0 45.608 36.973 82.581 82.581 82.581s82.581-36.973 82.581-82.581c-.001-45.609-36.973-82.581-82.581-82.581zm0 148.645c-36.486 0-66.065-29.578-66.065-66.065s29.578-66.065 66.065-66.065 66.065 29.578 66.065 66.065c-.001 36.487-29.579 66.065-66.065 66.065z" fill="#eceaec" data-original="#eceaec"></path><path d="m90.839 317.935h16.516v33.032h-16.516z" fill="#b6b1b7" data-original="#b6b1b7"></path><g fill="#ffc269"><path d="m52.992 290.419c-1.774 0-3.565-.569-5.073-1.746-3.597-2.802-4.234-7.992-1.435-11.589 1.694-2.169 3.492-4.286 5.484-6.278s4.113-3.79 6.274-5.48c3.597-2.815 8.79-2.165 11.597 1.435 2.798 3.597 2.161 8.786-1.435 11.589-1.645 1.278-3.25 2.625-4.758 4.133s-2.855 3.117-4.129 4.754c-1.63 2.09-4.065 3.182-6.525 3.182z" fill="#ffc269" data-original="#ffc269"></path><path d="m134.879 372.29c-2.46 0-4.895-1.093-6.524-3.181-2.798-3.597-2.161-8.786 1.435-11.589 1.645-1.278 3.25-2.625 4.758-4.133s2.855-3.117 4.129-4.754c2.806-3.597 7.992-4.254 11.597-1.435 3.597 2.802 4.234 7.992 1.435 11.589-1.694 2.169-3.492 4.286-5.484 6.278s-4.113 3.79-6.274 5.48c-1.507 1.177-3.298 1.745-5.072 1.745z" fill="#ffc269" data-original="#ffc269"></path><path d="m459.008 290.419c-2.46 0-4.895-1.093-6.524-3.181-1.274-1.637-2.621-3.246-4.129-4.754s-3.113-2.855-4.758-4.133c-3.597-2.802-4.234-7.992-1.435-11.589 2.798-3.601 8-4.25 11.597-1.435 2.161 1.69 4.282 3.488 6.274 5.48s3.79 4.109 5.484 6.278c2.798 3.597 2.161 8.786-1.435 11.589-1.509 1.177-3.3 1.745-5.074 1.745z" fill="#ffc269" data-original="#ffc269"></path><path d="m377.121 372.29c-1.774 0-3.565-.569-5.073-1.746-2.161-1.69-4.282-3.488-6.274-5.48s-3.79-4.109-5.484-6.278c-2.798-3.597-2.161-8.786 1.435-11.589 3.589-2.819 8.79-2.161 11.597 1.435 1.274 1.637 2.621 3.246 4.129 4.754s3.113 2.855 4.758 4.133c3.597 2.802 4.234 7.992 1.435 11.589-1.628 2.09-4.063 3.182-6.523 3.182z" fill="#ffc269" data-original="#ffc269"></path></g><path d="m419.355 321.036-21.484-26.855c-7.001-8.751-12.323-18.721-15.697-29.408l-32.761-103.742-10.487-7.914-6.827 7.914h-154.439c-6.284 0-12.024 3.566-14.808 9.201l-71.158 144.038 6.315 11.851 123.871 16.516c.349.046.697.068 1.046.07.015 0 .028.007.043.007.798 0 1.621-.121 2.427-.371.149-.046.25-.161.395-.214.504-.184.933-.477 1.394-.757.503-.306.996-.59 1.413-.988.116-.11.276-.154.387-.271l119.55-127.023 17.895 56.674c3.985 12.621 10.27 24.396 18.538 34.731l21.484 26.855c1.637 2.04 4.032 3.101 6.46 3.101 1.806 0 3.629-.593 5.153-1.81 3.556-2.847 4.137-8.044 1.29-11.605zm-307.742-9.762 58.943-118.991 40.724 132.28zm115.072 7.175-43.378-140.9h154.006l5.523 17.491z" fill="#ff8086" data-original="#ff8086"></path><path d="m363.355 128-8.255-8.258h-13.511c-5.242 0-10.226 2.528-13.323 6.758s-4.008 9.742-2.419 14.734l6.251 19.798h17.315l-7.824-24.774h13.508z" fill="#dad8db" data-original="#dad8db"></path><path d="m123.871 104.044c0 12.394 11.338 21.689 23.491 19.258l51.794-10.359c4.242-.848 7.296-4.573 7.296-8.9 0-5.012-4.063-9.076-9.076-9.076h-64.429c-5.013.001-9.076 4.064-9.076 9.077z" fill="#5d5360" data-original="#5d5360"></path><path d="m379.871 119.742h-24.774v16.516h24.774c9.105 0 16.516 7.407 16.516 16.516s-7.411 16.516-16.516 16.516c-4.565 0-8.258 3.698-8.258 8.258s3.694 8.258 8.258 8.258c18.218 0 33.032-14.819 33.032-33.032s-14.814-33.032-33.032-33.032z" fill="#5d5360" data-original="#5d5360"></path><circle cx="222.968" cy="334.452" fill="#5d5360" r="24.774" data-original="#5d5360"></circle><path d="m230.839 331.948c-1.387-4.343-6.016-6.738-10.379-5.367-4.339 1.383-6.742 6.028-5.363 10.375l18.395 57.806 15.742-5.008z" fill="#4b3f4e" data-original="#4b3f4e"></path><path d="m256 400.516h-24.774c-4.565 0-8.258-3.698-8.258-8.258s3.694-8.258 8.258-8.258h24.774c4.565 0 8.258 3.698 8.258 8.258s-3.693 8.258-8.258 8.258z" fill="#5d5360" data-original="#5d5360"></path><circle cx="99.097" cy="350.968" fill="#5d5360" r="8.258" data-original="#5d5360"></circle><circle cx="99.097" cy="317.935" fill="#5d5360" r="8.258" data-original="#5d5360"></circle></g></g></svg>