<svg xmlns="http://www.w3.org/2000/svg" version="1.1" xmlns:xlink="http://www.w3.org/1999/xlink" xmlns:svgjs="http://svgjs.com/svgjs" width="512" height="512" x="0" y="0" viewBox="0 0 512 512" style="enable-background:new 0 0 512 512" xml:space="preserve" class=""><g><g xmlns="http://www.w3.org/2000/svg"><path d="m497 66h-47l-261.404 190.185 81.404 189.815h227c8.284 0 15-6.716 15-15v-350c0-8.284-6.716-15-15-15z" fill="#ffa07a" data-original="#ffa07a"></path><g><g><path d="m450 142h-45l-103 16-122-16v-61c0-8.284 6.716-15 15-15h255z" fill="#ffe278" data-original="#ffe278"></path></g><g><path d="m405 218h-45l-127 16-98-16v-61c0-8.284 6.716-15 15-15h255z" fill="#ffc178" data-original="#ffc178"></path></g><g><path d="m360 294h-45l-113 16-112-16v-61c0-8.284 6.716-15 15-15h255z" fill="#ffe278" data-original="#ffe278"></path></g><g><path d="m315 370h-45l-105 16-120-16v-61c0-8.284 6.716-15 15-15h255z" fill="#ffc178" data-original="#ffc178"></path></g><g><path d="m270 446h-255c-8.284 0-15-6.716-15-15v-46c0-8.284 6.716-15 15-15h255z" fill="#ffe278" data-original="#ffe278"></path></g></g></g></g></svg>