<svg xmlns="http://www.w3.org/2000/svg" version="1.1" xmlns:xlink="http://www.w3.org/1999/xlink" xmlns:svgjs="http://svgjs.com/svgjs" width="512" height="512" x="0" y="0" viewBox="0 0 256 256" style="enable-background:new 0 0 512 512" xml:space="preserve" class=""><g><g xmlns="http://www.w3.org/2000/svg"><g><g><path d="m145.021 13.453h-16.243v10h16.243c9.688 0 17.57 7.882 17.57 17.57v36.922h10v-36.922c0-15.202-12.368-27.57-27.57-27.57z" fill="#414042" data-original="#414042" class=""></path><g><path d="m64.757 31.185h60.021c2.209 0 4-1.791 4-4v-18.051c0-2.209-1.791-4-4-4h-54.021c-5.523 0-10 4.477-10 10v12.051c0 2.209 1.791 4 4 4z" fill="#377de2" data-original="#377de2" class=""></path></g><g><path d="m124.778 5.135h-1v17.051c0 2.209-1.791 4-4 4h-59.021v1c0 2.209 1.791 4 4 4h60.021c2.209 0 4-1.791 4-4v-18.051c0-2.21-1.791-4-4-4z" fill="#2266d3" data-original="#2266d3" class=""></path></g><g><path d="m70.924 31.185h47.687l-28.573 12.501c-9.015 3.944-19.114-2.661-19.114-12.501z" fill="#ffc91d" data-original="#ffc91d" class=""></path></g><g><path d="m102.182 31.185-17.144 7.501c-4.253 1.861-8.746 1.372-12.307-.695 3.304 5.725 10.604 8.628 17.307 5.695l28.573-12.501z" fill="#ffa91a" data-original="#ffa91a"></path></g></g></g><g><g><path d="m83.74 76.832c-1.104 0-2-.896-2-2v-21.197c0-1.104.896-2 2-2s2 .896 2 2v21.197c0 1.105-.896 2-2 2z" fill="#ffc91d" data-original="#ffc91d" class=""></path></g><g><path d="m57.943 76.833c-.312 0-.628-.073-.923-.227-.979-.511-1.359-1.719-.849-2.698l11.055-21.198c.511-.98 1.72-1.358 2.698-.849.979.511 1.359 1.719.849 2.698l-11.055 21.198c-.357.684-1.053 1.076-1.775 1.076z" fill="#ffc91d" data-original="#ffc91d" class=""></path></g><g><path d="m109.536 76.833c-.721 0-1.418-.392-1.775-1.076l-11.055-21.197c-.511-.979-.131-2.188.849-2.698.979-.51 2.188-.13 2.698.849l11.055 21.197c.511.979.131 2.188-.849 2.698-.295.153-.611.227-.923.227z" fill="#ffc91d" data-original="#ffc91d" class=""></path></g></g><g><path d="m174.682 77.946h-14.183c-2.761 0-5 2.239-5 5v32.721h24.183v-32.721c0-2.762-2.239-5-5-5z" fill="#377de2" data-original="#377de2" class=""></path></g><g><path d="m174.682 77.946v27.721c0 2.761-2.239 5-5 5h-14.183v5h24.183v-32.721c0-2.762-2.239-5-5-5z" fill="#2266d3" data-original="#2266d3" class=""></path></g><g><path d="m188.385 234.749h-41.589v-114.082c0-2.761 2.239-5 5-5h31.589c2.761 0 5 2.239 5 5z" fill="#478cf7" data-original="#478cf7" class=""></path></g><g><path d="m152.796 178.5c-1.104 0-2-.896-2-2v-46c0-1.104.896-2 2-2s2 .896 2 2v46c0 1.104-.896 2-2 2zm0-54c-1.104 0-2-.896-2-2v-.833c0-1.104.896-2 2-2s2 .896 2 2v.833c0 1.104-.896 2-2 2z" fill="#5e9cf7" data-original="#5e9cf7" class=""></path></g><g><path d="m183.385 115.667h-5v104.082c0 2.761-2.239 5-5 5h-26.589v10h41.589v-114.082c0-2.762-2.238-5-5-5z" fill="#377de2" data-original="#377de2" class=""></path></g><g><path d="m183.385 115.667v109.082c0 2.761-2.239 5-5 5h-31.589v5h41.589v-114.082c0-2.762-2.238-5-5-5z" fill="#2266d3" data-original="#2266d3" class=""></path></g><g><path d="m193.055 234.749h-50.929c-2.761 0-5 2.239-5 5v9.117c0 1.105.895 2 2 2h56.929c1.105 0 2-.895 2-2v-9.117c0-2.762-2.238-5-5-5z" fill="#58595b" data-original="#58595b"></path></g><g><path d="m193.055 234.749v6.117c0 2.761-2.239 5-5 5h-50.929v3c0 1.105.895 2 2 2h56.929c1.105 0 2-.895 2-2v-9.117c0-2.762-2.238-5-5-5z" fill="#414042" data-original="#414042" class=""></path></g></g></g></svg>