<svg xmlns="http://www.w3.org/2000/svg" version="1.1" xmlns:xlink="http://www.w3.org/1999/xlink" xmlns:svgjs="http://svgjs.com/svgjs" width="512" height="512" x="0" y="0" viewBox="0 0 64 64" style="enable-background:new 0 0 512 512" xml:space="preserve" class=""><g><path xmlns="http://www.w3.org/2000/svg" d="m44 56-3 4h-22l-3-4" fill="#939393" data-original="#939393" class=""></path><path xmlns="http://www.w3.org/2000/svg" d="m44.071 56a7.029 7.029 0 0 1 .6-4h-29.345a7.029 7.029 0 0 1 .6 4z" fill="#b5b5b5" data-original="#b5b5b5" class=""></path><path xmlns="http://www.w3.org/2000/svg" d="m58 55h4a11 11 0 0 0 -11-11v4a7 7 0 0 1 7 7z" fill="#3b5892" data-original="#3b5892" class=""></path><path xmlns="http://www.w3.org/2000/svg" d="m23 52-8.732-8.733-.475 6.633a7.024 7.024 0 0 1 1.533 2.1z" fill="#5e87ca" data-original="#5e87ca"></path><path xmlns="http://www.w3.org/2000/svg" d="m11 8-2.128 25h4l2.128-25z" fill="#cccccc" data-original="#cccccc"></path><path xmlns="http://www.w3.org/2000/svg" d="m13.793 49.9 1.054-14.76a2 2 0 0 0 -1.995-2.14h-3.99a2 2 0 0 0 -1.995 1.858l-.991 13.878a7.008 7.008 0 0 1 7.924 1.164z" fill="#3b5892" data-original="#3b5892" class=""></path><circle xmlns="http://www.w3.org/2000/svg" cx="9" cy="55" fill="#474747" r="7" data-original="#474747" class=""></circle><circle xmlns="http://www.w3.org/2000/svg" cx="51" cy="55" fill="#474747" r="7" data-original="#474747" class=""></circle><rect xmlns="http://www.w3.org/2000/svg" fill="#5e87ca" height="6" rx="3" width="22" x="8" y="2" data-original="#5e87ca"></rect><circle xmlns="http://www.w3.org/2000/svg" cx="51" cy="55" fill="#686868" r="3" data-original="#686868" class=""></circle><circle xmlns="http://www.w3.org/2000/svg" cx="9" cy="55" fill="#686868" r="3" data-original="#686868" class=""></circle><path xmlns="http://www.w3.org/2000/svg" d="m26.142 2h-15.142a3 3 0 0 0 -3 3h17.142a1 1 0 0 0 1-1z" fill="#78a0d4" data-original="#78a0d4"></path></g></svg>