<svg xmlns="http://www.w3.org/2000/svg" version="1.1" xmlns:xlink="http://www.w3.org/1999/xlink" xmlns:svgjs="http://svgjs.com/svgjs" width="512" height="512" x="0" y="0" viewBox="0 0 1707 1707" style="enable-background:new 0 0 512 512" xml:space="preserve" class=""><g><g xmlns="http://www.w3.org/2000/svg" id="Layer_x0020_1"><g id="_270545264"><path d="m1687 1407h-1667c-11 0-20-9-20-20v-1067c0-11 9-20 20-20h1667c11 0 20 9 20 20v1067c0 11-9 20-20 20z" fill="#e15649" data-original="#e15649" class=""></path><g fill="#bc342e"><path d="m0 902v-40h1707v40zm0-295v-40h1707v40z" fill="#bc342e" data-original="#bc342e" class=""></path><path d="m274 300h40v287c0 11-9 20-20 20s-20-9-20-20z" fill="#bc342e" data-original="#bc342e" class=""></path><path d="m833 300h40v287c0 11-9 20-20 20s-20-9-20-20z" fill="#bc342e" data-original="#bc342e" class=""></path><path d="m1393 300h40v287c0 11-9 20-20 20s-20-9-20-20z" fill="#bc342e" data-original="#bc342e" class=""></path><path d="m577 902c-11 0-20-9-20-20v-295c0-27 40-27 40 0v295c0 11-9 20-20 20z" fill="#bc342e" data-original="#bc342e" class=""></path><path d="m1130 902c-11 0-20-9-20-20v-295c0-27 40-27 40 0v295c0 11-9 20-20 20z" fill="#bc342e" data-original="#bc342e" class=""></path><path d="m0 1157v-40h1707v40zm0-255v-40h1707v40z" fill="#bc342e" data-original="#bc342e" class=""></path><path d="m294 1157c-11 0-20-9-20-20v-255c0-27 40-27 40 0v255c0 11-9 20-20 20z" fill="#bc342e" data-original="#bc342e" class=""></path><path d="m853 1157c-11 0-20-9-20-20v-255c0-27 40-27 40 0v255c0 11-9 20-20 20z" fill="#bc342e" data-original="#bc342e" class=""></path><path d="m1413 1157c-11 0-20-9-20-20v-255c0-27 40-27 40 0v255c0 11-9 20-20 20z" fill="#bc342e" data-original="#bc342e" class=""></path><path d="m597 1407h-40v-270c0-27 40-27 40 0z" fill="#bc342e" data-original="#bc342e" class=""></path><path d="m1150 1407h-40v-270c0-27 40-27 40 0z" fill="#bc342e" data-original="#bc342e" class=""></path></g></g></g></g></svg>