<svg xmlns="http://www.w3.org/2000/svg" version="1.1" xmlns:xlink="http://www.w3.org/1999/xlink" xmlns:svgjs="http://svgjs.com/svgjs" width="512" height="512" x="0" y="0" viewBox="0 0 512.00199 512" style="enable-background:new 0 0 512 512" xml:space="preserve" class=""><g><path xmlns="http://www.w3.org/2000/svg" d="m53.164062 266.96875c.597657-.777344 1.242188-1.527344 1.917969-2.253906l5.386719-11.355469-6.28125-6.347656c-.230469 2.898437-.886719 5.789062-2 8.582031-.035156.054688-.0625.074219-.089844.085938-2.714844 1.101562-5.550781 1.769531-8.449218 2.007812l8.117187 8.207031c.425781.429688.902344.769531 1.398437 1.074219zm0 0" fill="#563d28" data-original="#563d28"></path><path xmlns="http://www.w3.org/2000/svg" d="m52.871094 256.34375c-.109375.105469-.234375.191406-.378906.253906-11.175782 4.539063-23.894532 1.910156-32.40625-6.695312-8.511719-8.601563-11.113282-21.460938-6.625-32.757813.054687-.148437.144531-.277343.25-.386719.109374-.105468.234374-.191406.378906-.25 11.171875-4.539062 23.894531-1.910156 32.40625 6.691407 8.515625 8.605469 11.113281 21.46875 6.621094 32.761719-.054688.144531-.140626.273437-.246094.382812zm0 0" fill="#009e2f" data-original="#009e2f"></path><path xmlns="http://www.w3.org/2000/svg" d="m32.433594 237.488281c-6.148438-6.214843-9.191406-14.652343-8.726563-23.113281-3.242187.171875-6.492187.863281-9.617187 2.132812-.144532.058594-.269532.144532-.378906.25-.105469.109376-.195313.238282-.25.386719-4.488282 11.296875-1.886719 24.152344 6.625 32.757813 8.511718 8.605468 21.230468 11.234375 32.40625 6.695312.144531-.0625.269531-.148437.378906-.253906.105468-.109375.191406-.238281.25-.382812 1.246094-3.136719 1.925781-6.394532 2.105468-9.648438-8.347656.449219-16.660156-2.628906-22.792968-8.824219zm0 0" fill="#00752c" data-original="#00752c" class=""></path><path xmlns="http://www.w3.org/2000/svg" d="m160.421875 233.3125c.5-.308594.976563-.671875 1.410156-1.109375l8.117188-8.207031c-2.898438-.238282-5.738281-.910156-8.46875-2.019532l-.074219-.074218c-1.109375-2.792969-1.765625-5.683594-2-8.582032l-5.722656 5.789063zm0 0" fill="#563d28" data-original="#563d28"></path><path xmlns="http://www.w3.org/2000/svg" d="m160.726562 222.652344c.109376.105468.234376.195312.378907.253906 11.175781 4.539062 23.894531 1.910156 32.40625-6.695312 8.511719-8.605469 11.113281-21.460938 6.625-32.761719-.058594-.144531-.144531-.273438-.25-.382813-.113281-.105468-.234375-.1875-.378907-.25-11.171874-4.539062-23.894531-1.914062-32.410156 6.691406-8.511718 8.605469-11.109375 21.464844-6.621094 32.761719.058594.144531.144532.273438.25.382813zm0 0" fill="#009e2f" data-original="#009e2f"></path><path xmlns="http://www.w3.org/2000/svg" d="m179.875 202.769531c6.035156-6.097656 14.191406-9.175781 22.40625-8.84375-.097656-3.527343-.792969-7.070312-2.144531-10.476562-.058594-.144531-.144531-.273438-.25-.382813-.113281-.105468-.234375-.1875-.378907-.25-11.171874-4.539062-23.894531-1.914062-32.410156 6.691406-8.511718 8.605469-11.109375 21.464844-6.621094 32.761719.058594.144531.144532.273438.25.382813.109376.105468.234376.195312.378907.253906 3.25 1.320312 6.628906 2.015625 10 2.152344-.230469-8.179688 2.820312-16.273438 8.769531-22.289063zm0 0" fill="#00752c" data-original="#00752c" class=""></path><path xmlns="http://www.w3.org/2000/svg" d="m172.679688 259.125c.875.886719 1.671874 1.828125 2.417968 2.800781l-42.074218-88.714843c-2.972657 4.222656-7.378907 7.347656-12.503907 8.644531l32.585938 68.703125c7.390625.230468 14.308593 3.246094 19.574219 8.566406zm0 0" fill="#72563c" data-original="#72563c"></path><path xmlns="http://www.w3.org/2000/svg" d="m202.8125 320.363281-22.445312-47.328125c1.375 5.796875 1.015624 11.996094-1.285157 17.78125-.039062.050782-.066406.074219-.09375.085938-1.925781.78125-3.917969 1.34375-5.945312 1.691406l16.960937 35.757812c3.671875-3.679687 8.046875-6.382812 12.808594-7.988281zm0 0" fill="#72563c" data-original="#72563c"></path><path xmlns="http://www.w3.org/2000/svg" d="m97.375 173.210938-69.789062 147.152343c4.761718 1.605469 9.136718 4.308594 12.808593 7.992188l14.472657-30.519531c-1.601563-.351563-3.179688-.824219-4.71875-1.4375l-.085938-.085938c-4.441406-10.949219-1.871094-23.417969 6.546875-31.769531 4.917969-4.875 11.25-7.828125 18.074219-8.484375l35.191406-74.203125c-5.121094-1.296875-9.523438-4.421875-12.5-8.644531zm0 0" fill="#72563c" data-original="#72563c"></path><path xmlns="http://www.w3.org/2000/svg" d="m92.773438 156.0625c-.277344 1.429688-.425782 2.910156-.425782 4.425781 0 12.71875 10.230469 23.03125 22.851563 23.03125 12.617187 0 22.847656-10.3125 22.847656-23.03125 0-1.515625-.148437-2.996093-.425781-4.425781zm0 0" fill="#b57a4e" data-original="#b57a4e"></path><path xmlns="http://www.w3.org/2000/svg" d="m108.03125 160.488281c0-1.515625.164062-2.992187.441406-4.425781h-15.699218c-.277344 1.429688-.425782 2.910156-.425782 4.425781 0 12.71875 10.230469 23.03125 22.851563 23.03125 2.753906 0 5.394531-.488281 7.839843-1.390625-8.753906-3.226562-15.007812-11.699218-15.007812-21.640625zm0 0" fill="#9b5729" data-original="#9b5729"></path><path xmlns="http://www.w3.org/2000/svg" d="m163.871094 151.9375c0 2.820312-2.304688 5.125-5.121094 5.125h-87.101562c-2.816407 0-5.121094-2.304688-5.121094-5.125v-12.425781c0-2.816407 2.304687-5.121094 5.121094-5.121094h87.101562c2.816406 0 5.117188 2.304687 5.117188 5.121094v12.425781zm0 0" fill="#f8d5ab" data-original="#f8d5ab"></path><path xmlns="http://www.w3.org/2000/svg" d="m97.792969 151.9375v-12.425781c0-2.816407 2.304687-5.121094 5.117187-5.121094h-31.261718c-2.816407 0-5.121094 2.304687-5.121094 5.121094v12.425781c0 2.820312 2.304687 5.125 5.121094 5.125h31.261718c-2.8125 0-5.117187-2.304688-5.117187-5.125zm0 0" fill="#eac092" data-original="#eac092"></path><path xmlns="http://www.w3.org/2000/svg" d="m49.390625 297.074219c-.105469-.109375-.195313-.238281-.253906-.382813-4.59375-11.328125-1.933594-24.226562 6.769531-32.855468 8.707031-8.632813 21.714844-11.269532 33.144531-6.714844.148438.054687.277344.144531.390625.25.105469.109375.191406.238281.253906.386718 4.589844 11.328126 1.933594 24.226563-6.769531 32.855469-8.707031 8.632813-21.71875 11.265625-33.148437 6.714844-.144532-.058594-.273438-.144531-.386719-.253906zm0 0" fill="#99ce19" data-original="#99ce19"></path><path xmlns="http://www.w3.org/2000/svg" d="m68.476562 275.808594c6.28125-6.222656 14.796876-9.3125 23.347657-8.851563-.222657-3.101562-.917969-6.207031-2.128907-9.199219-.0625-.148437-.148437-.273437-.253906-.382812-.113281-.109375-.242187-.199219-.390625-.253906-11.429687-4.554688-24.4375-1.917969-33.144531 6.714844-8.703125 8.632812-11.363281 21.527343-6.769531 32.855468.058593.144532.148437.273438.253906.382813.113281.109375.242187.199219.386719.253906 3.1875 1.273437 6.492187 1.960937 9.796875 2.136719-.621094-8.644532 2.496093-17.304688 8.902343-23.65625zm0 0" fill="#81aa00" data-original="#81aa00"></path><path xmlns="http://www.w3.org/2000/svg" d="m179.765625 291.566406c-.113281.105469-.238281.191406-.378906.253906-11.175781 4.539063-23.894531 1.90625-32.410157-6.691406-8.507812-8.609375-11.109374-21.464844-6.621093-32.761718.054687-.148438.140625-.277344.25-.386719.109375-.101563.234375-.191407.378906-.25 11.171875-4.539063 23.894531-1.914063 32.40625 6.691406s11.113281 21.46875 6.621094 32.761719c-.058594.144531-.140625.273437-.246094.382812zm0 0" fill="#99ce19" data-original="#99ce19"></path><path xmlns="http://www.w3.org/2000/svg" d="m158.988281 272.679688c-6.136719-6.207032-9.179687-14.621094-8.730469-23.066407-3.128906.207031-6.257812.890625-9.273437 2.117188-.144531.058593-.269531.148437-.382813.25-.105468.109375-.191406.238281-.246093.386719-4.492188 11.296874-1.890625 24.148437 6.621093 32.761718 8.511719 8.601563 21.234376 11.230469 32.410157 6.691406.140625-.0625.265625-.148437.375-.253906.105469-.109375.191406-.238281.25-.382812 1.253906-3.152344 1.933593-6.425782 2.109375-9.695313-8.460938.546875-16.917969-2.53125-23.132813-8.808593zm0 0" fill="#81aa00" data-original="#81aa00"></path><path xmlns="http://www.w3.org/2000/svg" d="m103.902344 349.527344c.6875-.6875 1.5-1.195313 2.386718-1.515625 3.804688-8.425781 4.171876-18.21875.621094-27.152344-.0625-.167969-.164062-.3125-.285156-.4375-.125-.117187-.265625-.21875-.429688-.285156-12.699218-5.15625-27.152343-2.167969-36.828124 7.605469-7.964844 8.054687-11.359376 19.382812-9.464844 30.300781h35.492187zm0 0" fill="#009e2f" data-original="#009e2f"></path><path xmlns="http://www.w3.org/2000/svg" d="m72.332031 358.042969c1.210938-6.738281 4.402344-13.101563 9.414063-18.167969 7.335937-7.414062 17.417968-10.910156 27.402344-9.929688-.332032-3.066406-1.0625-6.121093-2.238282-9.085937-.0625-.167969-.164062-.3125-.285156-.4375-.125-.117187-.265625-.21875-.429688-.285156-12.699218-5.15625-27.152343-2.167969-36.828124 7.605469-7.964844 8.054687-11.359376 19.382812-9.464844 30.300781zm0 0" fill="#00752c" data-original="#00752c" class=""></path><path xmlns="http://www.w3.org/2000/svg" d="m50.671875 358.042969c1.894531-10.914063-1.503906-22.246094-9.472656-30.296875-9.671875-9.78125-24.125-12.769532-36.820313-7.609375-.167968.066406-.308594.167969-.433594.285156-.121093.125-.214843.269531-.285156.4375-5.09375 12.820313-2.152344 27.402344 7.484375 37.183594zm0 0" fill="#99ce19" data-original="#99ce19"></path><path xmlns="http://www.w3.org/2000/svg" d="m50.664062 358.042969c.128907-.742188.234376-1.488281.316407-2.234375-10.089844 1.097656-20.316407-2.390625-27.730469-9.886719-7.421875-7.503906-10.871094-17.855469-9.777344-28.066406-3.070312.335937-6.128906 1.074219-9.09375 2.28125-.167968.066406-.308594.167969-.433594.285156-.121093.125-.214843.269531-.285156.4375-5.09375 12.820313-2.152344 27.402344 7.484375 37.183594zm0 0" fill="#81aa00" data-original="#81aa00"></path><path xmlns="http://www.w3.org/2000/svg" d="m219.25 358.042969c9.636719-9.777344 12.578125-24.363281 7.484375-37.183594-.0625-.167969-.164063-.3125-.285156-.4375-.125-.117187-.265625-.21875-.429688-.285156-12.695312-5.15625-27.152343-2.167969-36.828125 7.609375-7.964844 8.050781-11.359375 19.378906-9.464844 30.296875zm0 0" fill="#99ce19" data-original="#99ce19"></path><path xmlns="http://www.w3.org/2000/svg" d="m193.613281 358.042969c1.367188-6.277344 4.464844-12.179688 9.167969-16.933594 7.070312-7.144531 16.6875-10.640625 26.308594-10.007813-.261719-3.457031-1.03125-6.910156-2.355469-10.242187-.0625-.167969-.164063-.3125-.285156-.4375-.125-.117187-.265625-.21875-.429688-.285156-12.695312-5.15625-27.152343-2.167969-36.824219 7.609375-7.96875 8.050781-11.363281 19.378906-9.46875 30.296875zm0 0" fill="#81aa00" data-original="#81aa00"></path><path xmlns="http://www.w3.org/2000/svg" d="m161.027344 327.742188c-9.675782-9.777344-24.128906-12.765626-36.824219-7.605469-.167969.066406-.308594.167969-.433594.285156-.121093.125-.214843.269531-.28125.4375-3.582031 9.007813-3.175781 18.882813.714844 27.355469.695313.316406 1.339844.757812 1.894531 1.3125l8.511719 8.519531h35.886719c1.894531-10.917969-1.503906-22.25-9.46875-30.304687zm0 0" fill="#009e2f" data-original="#009e2f"></path><path xmlns="http://www.w3.org/2000/svg" d="m126.097656 349.527344 8.511719 8.515625h31.875c-7.3125-.953125-14.277344-4.277344-19.722656-9.785157-8.035157-8.125-11.417969-19.585937-9.410157-30.59375-4.417968-.054687-8.882812.738282-13.148437 2.472657-.164063.066406-.308594.167969-.429687.285156-.121094.125-.214844.269531-.285157.433594-3.578125 9.011719-3.175781 18.886719.714844 27.359375.695313.316406 1.339844.753906 1.894531 1.3125zm0 0" fill="#00752c" data-original="#00752c" class=""></path><g xmlns="http://www.w3.org/2000/svg" fill="#72563c"><path d="m410.898438 180.230469c-4.664063 2.242187-9.078126 4.960937-13.175782 8.109375l3.691406 11.777344c4.585938-1.996094 9.359376-3.539063 14.273438-4.617188zm0 0" fill="#72563c" data-original="#72563c"></path><path d="m404.078125 158.476562-36.277344-115.695312c-3.703125 3.40625-8.570312 5.546875-13.917969 5.738281l35.957032 114.683594c4.5625-2.015625 9.324218-3.609375 14.238281-4.726563zm0 0" fill="#72563c" data-original="#72563c"></path><path d="m409.953125 227.351562 4.347656 13.855469h15.71875l-5.628906-17.957031c-4.933594.871094-9.761719 2.230469-14.4375 4.101562zm0 0" fill="#72563c" data-original="#72563c"></path><path d="m311.730469 145.191406.617187.480469.617188-.480469c4.332031-3.398437 7.957031-4.414062 10.457031-4.601562l28.867187-92.070313c-5.347656-.191406-10.214843-2.332031-13.917968-5.738281l-31.203125 99.511719c1.40625.6875 2.933593 1.621093 4.5625 2.898437zm0 0" fill="#72563c" data-original="#72563c"></path><path d="m304.738281 200.175781 3.730469-11.894531c-2.476562-1.890625-5.082031-3.652344-7.824219-5.253906l-.226562-.132813-.257813-.003906c-2-.039063-3.773437-.609375-5.210937-1.628906l-4.472657 14.269531c4.90625 1.085938 9.679688 2.636719 14.261719 4.644531zm0 0" fill="#72563c" data-original="#72563c"></path><path d="m291.871094 241.207031 4.328125-13.800781c-4.636719-1.863281-9.464844-3.242188-14.425781-4.128906l-5.621094 17.929687zm0 0" fill="#72563c" data-original="#72563c"></path></g><path xmlns="http://www.w3.org/2000/svg" d="m488.78125 216.140625c-15.019531-15.144531-34.992188-23.480469-56.238281-23.480469-21.246094 0-41.21875 8.339844-56.238281 23.480469-.589844.597656-1.167969 1.203125-1.738282 1.816406-.277344.640625-.554687 1.28125-.816406 1.933594l-.632812 1.574219 1.683593-.207032c.460938-.058593.886719-.085937 1.308594-.085937 2.488281 0 6.476563.804687 11.363281 4.632813l.617188.484374.617187-.484374c4.890625-3.828126 8.878907-4.632813 11.363281-4.632813 3.746094 0 6.8125 1.875 8.199219 5.015625.367188.828125.609375 1.710938.730469 2.632812 8.863281-3.746093 18.464844-5.714843 28.367188-5.714843 19.59375 0 38.019531 7.691406 51.875 21.660156 7.457031 7.515625 13.113281 16.367187 16.808593 26.300781.453125 1.21875 1.613281 2 2.878907 2 .195312 0 .398437-.019531.597656-.058594 1.480468-.292968 2.527344-1.617187 2.472656-3.125-.730469-20.296874-8.976562-39.386718-23.21875-53.742187zm0 0" fill="#6ee5d9" data-original="#6ee5d9"></path><path xmlns="http://www.w3.org/2000/svg" d="m471.304688 173.332031c-14.101563-11.476562-31.8125-17.800781-49.871094-17.800781-1.867188 0-3.761719.070312-5.632813.203125-27.332031 1.925781-50.507812 17.632813-63.300781 39.902344 7.777344 13.308593 11.789062 29.023437 10.640625 45.5625v.007812h6.53125c.066406-.71875.117187-1.4375.203125-2.148437-2.820312-4.703125-3.554688-9.28125-1.964844-12.871094 1.152344-2.601562 3.460938-4.316406 6.347656-4.832031 9.949219-25.933594 34.046876-45.15625 63.332032-47.222657 1.714844-.121093 3.449218-.183593 5.164062-.183593 8.738282 0 17.332032 1.5625 25.535156 4.644531.351563.132812.71875.195312 1.078126.195312 1.074218 0 2.105468-.5625 2.664062-1.542968.75-1.304688.441406-2.960938-.726562-3.914063zm0 0" fill="#00b4ac" data-original="#00b4ac"></path><path xmlns="http://www.w3.org/2000/svg" d="m316.730469 241.207031h20.800781c-.722656-8.066406-2.726562-15.808593-5.820312-22.992187-.648438-.699219-1.308594-1.394532-1.980469-2.074219-15.023438-15.140625-34.996094-23.480469-56.242188-23.480469-21.246093 0-41.214843 8.339844-56.234375 23.480469-14.242187 14.355469-22.488281 33.445313-23.21875 53.742187-.050781 1.507813.996094 2.832032 2.472656 3.125.203126.039063.402344.058594.601563.058594 1.261719 0 2.421875-.78125 2.875-2 3.695313-9.933594 9.347656-18.78125 16.808594-26.300781 13.855469-13.96875 32.28125-21.660156 51.875-21.660156 17.855469 0 34.722656 6.402343 48.0625 18.101562zm0 0" fill="#00b4ac" data-original="#00b4ac"></path><path xmlns="http://www.w3.org/2000/svg" d="m336.527344 241.207031h27.617187c1.90625-27.753906-10.527343-53.226562-30.910156-69.058593.273437 2.074218.050781 4.023437-.707031 5.738281-1.390625 3.140625-4.457032 5.015625-8.203125 5.019531-2.480469 0-6.46875-.804688-11.359375-4.636719l-.617188-.484375-.617187.484375c-4.890625 3.832031-8.878907 4.636719-11.363281 4.636719-.898438 0-1.753907-.117188-2.558594-.320312 21.492187 11.523437 36.449218 33.441406 38.71875 58.621093zm0 0" fill="#6ee5d9" data-original="#6ee5d9"></path><path xmlns="http://www.w3.org/2000/svg" d="m292.164062 177.890625c-1.886718-4.273437-.503906-9.941406 3.792969-15.554687l.464844-.609376-.464844-.605468c-1.320312-1.726563-2.363281-3.457032-3.125-5.148438-.820312-.085937-1.636719-.179687-2.460937-.238281-1.871094-.132813-3.765625-.199219-5.636719-.199219-18.054687 0-35.761719 6.320313-49.867187 17.800782-1.167969.949218-1.476563 2.609374-.726563 3.914062.5625.976562 1.59375 1.542969 2.667969 1.542969.359375 0 .722656-.0625 1.078125-.195313 8.203125-3.082031 16.792969-4.644531 25.535156-4.644531 1.710937 0 3.445313.058594 5.164063.179687 9.210937.652344 17.90625 3.015626 25.816406 6.738282-.949219-.792969-1.710938-1.796875-2.238282-2.980469zm0 0" fill="#6ee5d9" data-original="#6ee5d9"></path><path xmlns="http://www.w3.org/2000/svg" d="m277.59375 277.597656 24.667969 106.058594c.636719 2.746094 3.460937 4.988281 6.277343 4.988281h89.09375c2.816407 0 5.640626-2.242187 6.277344-4.988281l24.667969-106.058594zm0 0" fill="#eac092" data-original="#eac092"></path><path xmlns="http://www.w3.org/2000/svg" d="m333.203125 383.65625-24.667969-106.058594h-30.941406l24.667969 106.058594c.636719 2.746094 3.464843 4.988281 6.277343 4.988281h30.945313c-2.816406 0-5.644531-2.242187-6.28125-4.988281zm0 0" fill="#e0aa68" data-original="#e0aa68"></path><path xmlns="http://www.w3.org/2000/svg" d="m330.746094 21.671875c-.332032 1.5625-.511719 3.179687-.511719 4.839844 0 12.71875 10.230469 23.03125 22.851563 23.03125 12.617187 0 22.851562-10.3125 22.851562-23.03125 0-1.660157-.179688-3.277344-.511719-4.839844zm0 0" fill="#b57a4e" data-original="#b57a4e"></path><path xmlns="http://www.w3.org/2000/svg" d="m345.601562 26.511719c0-1.664063.1875-3.277344.519532-4.839844h-15.375c-.332032 1.5625-.511719 3.179687-.511719 4.839844 0 12.71875 10.230469 23.03125 22.851563 23.03125 2.695312 0 5.28125-.472657 7.683593-1.339844-8.839843-3.179687-15.167969-11.6875-15.167969-21.691406zm0 0" fill="#9b5729" data-original="#9b5729"></path><path xmlns="http://www.w3.org/2000/svg" d="m436.875 240.207031h-31.304688c-.34375.511719-.703124 1.023438-1.09375 1.53125l-.464843.609375.464843.609375c4.300782 5.605469 5.679688 11.273438 3.792969 15.546875-1.390625 3.140625-4.457031 5.015625-8.203125 5.015625-2.484375 0-6.46875-.804687-11.359375-4.632812l-.617187-.484375-.617188.484375c-4.890625 3.828125-8.878906 4.632812-11.363281 4.632812-3.746094 0-6.8125-1.875-8.203125-5.015625-1.886719-4.273437-.507812-9.941406 3.792969-15.546875l.464843-.609375-.464843-.609375c-.390625-.507812-.75-1.019531-1.09375-1.53125h-101.308594c-2.816406 0-5.121094 2.304688-5.121094 5.121094v28.148437c0 2.8125 2.304688 5.121094 5.121094 5.121094h167.578125c2.816406 0 5.117188-2.308594 5.117188-5.121094v-28.148437c.003906-2.816406-2.300782-5.121094-5.117188-5.121094zm0 0" fill="#f8d5ab" data-original="#f8d5ab"></path><path xmlns="http://www.w3.org/2000/svg" d="m295.78125 273.476562v-28.148437c0-2.816406 2.304688-5.121094 5.121094-5.121094h-31.605469c-2.816406 0-5.121094 2.304688-5.121094 5.121094v28.148437c0 2.8125 2.304688 5.121094 5.121094 5.121094h31.605469c-2.816406 0-5.121094-2.304687-5.121094-5.121094zm0 0" fill="#eac092" data-original="#eac092"></path><path xmlns="http://www.w3.org/2000/svg" d="m400.066406 264.519531c-2.738281 0-6.921875-.886719-11.976562-4.847656-5.054688 3.960937-9.242188 4.847656-11.980469 4.847656-4.15625 0-7.5625-2.097656-9.117187-5.609375-2.046876-4.636718-.582032-10.699218 3.910156-16.5625-4.492188-5.867187-5.957032-11.933594-3.910156-16.5625 1.554687-3.511718 4.960937-5.613281 9.117187-5.613281 2.738281 0 6.921875.886719 11.980469 4.847656 5.050781-3.960937 9.238281-4.847656 11.976562-4.847656 4.15625 0 7.5625 2.101563 9.117188 5.613281 2.050781 4.632813.582031 10.695313-3.914063 16.5625 4.496094 5.863282 5.960938 11.925782 3.914063 16.5625-1.554688 3.511719-4.960938 5.609375-9.117188 5.609375zm0 0" fill="#e62937" data-original="#e62937"></path><path xmlns="http://www.w3.org/2000/svg" d="m382.375 258.910156c-2.050781-4.636718-.582031-10.699218 3.910156-16.5625-4.492187-5.867187-5.957031-11.933594-3.910156-16.5625.539062-1.21875 1.3125-2.253906 2.253906-3.101562-3.507812-1.992188-6.433594-2.511719-8.519531-2.511719-4.152344 0-7.558594 2.101563-9.113281 5.609375-2.050782 4.632812-.582032 10.699219 3.910156 16.566406-4.496094 5.863282-5.960938 11.925782-3.914062 16.558594 1.558593 3.515625 4.964843 5.613281 9.117187 5.613281h.003906c2.082031 0 5.007813-.519531 8.511719-2.511719-.9375-.84375-1.714844-1.878906-2.25-3.097656zm0 0" fill="#cf043c" data-original="#cf043c"></path><path xmlns="http://www.w3.org/2000/svg" d="m324.324219 183.90625c-2.738281 0-6.925781-.890625-11.976563-4.847656-5.054687 3.957031-9.242187 4.847656-11.980468 4.847656-4.152344 0-7.558594-2.097656-9.113282-5.613281-2.050781-4.632813-.585937-10.695313 3.910156-16.566407-4.492187-5.859374-5.960937-11.925781-3.910156-16.558593 1.554688-3.511719 4.960938-5.613281 9.113282-5.613281 2.738281 0 6.925781.886718 11.980468 4.847656 5.054688-3.960938 9.238282-4.847656 11.976563-4.847656 4.15625 0 7.5625 2.101562 9.117187 5.613281 2.046875 4.632812.582032 10.699219-3.910156 16.558593 4.492188 5.863282 5.957031 11.933594 3.910156 16.566407-1.554687 3.511719-4.960937 5.609375-9.117187 5.613281zm0 0" fill="#e62937" data-original="#e62937"></path><path xmlns="http://www.w3.org/2000/svg" d="m307.597656 178.292969c-2.050781-4.632813-.582031-10.695313 3.910156-16.566407-4.492187-5.859374-5.960937-11.925781-3.910156-16.558593.46875-1.054688 1.121094-1.964844 1.890625-2.746094-3.773437-2.289063-6.917969-2.867187-9.121093-2.867187-4.152344 0-7.558594 2.101562-9.113282 5.613281-2.050781 4.632812-.582031 10.699219 3.910156 16.558593-4.492187 5.871094-5.960937 11.933594-3.910156 16.566407 1.554688 3.515625 4.960938 5.613281 9.113282 5.613281 2.207031 0 5.347656-.582031 9.121093-2.863281-.773437-.78125-1.425781-1.691407-1.890625-2.75zm0 0" fill="#cf043c" data-original="#cf043c"></path><path xmlns="http://www.w3.org/2000/svg" d="m401.757812 17.550781c0 2.816407-2.304687 5.121094-5.121093 5.121094h-87.101563c-2.816406 0-5.121094-2.304687-5.121094-5.121094v-12.429687c0-2.816406 2.304688-5.121094 5.121094-5.121094h87.101563c2.816406 0 5.121093 2.304688 5.121093 5.121094zm0 0" fill="#f8d5ab" data-original="#f8d5ab"></path><path xmlns="http://www.w3.org/2000/svg" d="m335.359375 17.550781v-12.429687c0-2.816406 2.304687-5.121094 5.121094-5.121094h-30.945313c-2.816406 0-5.121094 2.304688-5.121094 5.121094v12.429687c0 2.816407 2.304688 5.121094 5.121094 5.121094h30.945313c-2.816407 0-5.121094-2.304687-5.121094-5.121094zm0 0" fill="#eac092" data-original="#eac092"></path><path xmlns="http://www.w3.org/2000/svg" d="m226.855469 357.042969h-93.246094l14.394531 14.410156c-2.316406.40625-4.585937 1.050781-6.765625 1.914063l-.191406.078124-.230469.191407c-.144531.152343-.238281.289062-.296875.433593-.828125 2.046876-1.453125 4.195313-1.867187 6.414063l-21.75-21.769531c-.390625-.394532-.738282-.851563-1.035156-1.363282l-.175782-.308593h-1.382812l-.175782.308593c-.292968.511719-.644531.972657-1.035156 1.363282l-21.746094 21.769531c-.414062-2.214844-1.035156-4.359375-1.863281-6.394531-.066406-.160156-.15625-.296875-.261719-.40625-.140624-.144532-.28125-.234375-.429687-.300782-2.199219-.875-4.476563-1.519531-6.800781-1.929687l14.394531-14.410156h-92.84375c-1.960937 0-3.546875 1.601562-3.546875 3.574219 0 64.027343 51.679688 116.121093 115.199219 116.121093s115.199219-52.09375 115.199219-116.121093c0-1.972657-1.585938-3.574219-3.542969-3.574219zm0 0" fill="#b57a4e" data-original="#b57a4e"></path><path xmlns="http://www.w3.org/2000/svg" d="m26 360.617188c0-1.972657 1.585938-3.574219 3.546875-3.574219h-26c-1.960937 0-3.546875 1.601562-3.546875 3.574219 0 64.027343 51.679688 116.121093 115.199219 116.121093 4.375 0 8.691406-.265625 12.941406-.75-57.394531-6.558593-102.140625-55.792969-102.140625-115.371093zm0 0" fill="#9b5729" data-original="#9b5729"></path><path xmlns="http://www.w3.org/2000/svg" d="m141.441406 374.453125c.011719-.027344.039063-.066406.082032-.109375.007812-.003906.042968-.027344.085937-.046875 2.746094-1.09375 5.601563-1.804687 8.507813-2.140625l-23.3125-23.335938c-2.925782-2.929687-7.675782-2.933593-10.605469-.007812-.480469.484375-.875 1.015625-1.199219 1.578125-.324219-.5625-.71875-1.09375-1.199219-1.578125-2.933593-2.925781-7.679687-2.921875-10.605469.007812l-23.316406 23.335938c2.914063.335938 5.765625 1.046875 8.523438 2.144531.03125.015625.066406.039063.09375.066407.023437.023437.050781.0625.066406.097656 1.074219 2.648437 1.753906 5.375 2.105469 8.117187l23.136719-23.160156c.480468-.480469.871093-1.011719 1.195312-1.574219.320312.5625.714844 1.09375 1.191406 1.574219l23.140625 23.164063c.351563-2.746094 1.035157-5.480469 2.109375-8.132813zm0 0" fill="#563d28" data-original="#563d28"></path><path xmlns="http://www.w3.org/2000/svg" d="m89.199219 373.652344c.121093.125.21875.265625.285156.425781 5.105469 12.589844 2.148437 26.917969-7.523437 36.511719-9.675782 9.585937-24.128907 12.515625-36.824219 7.460937-.167969-.0625-.3125-.164062-.433594-.285156-.117187-.121094-.214844-.261719-.285156-.425781-5.101563-12.585938-2.144531-26.917969 7.523437-36.503906 9.675782-9.59375 24.132813-12.519532 36.832032-7.464844.160156.066406.304687.164062.425781.28125zm0 0" fill="#99ce19" data-original="#99ce19"></path><path xmlns="http://www.w3.org/2000/svg" d="m65.789062 391.222656c6.925782-6.871094 16.304688-10.300781 25.734376-9.851562-.398438-2.460938-1.074219-4.90625-2.039063-7.292969-.066406-.160156-.164063-.300781-.285156-.425781-.121094-.117188-.265625-.214844-.425781-.28125-12.699219-5.054688-27.15625-2.128906-36.832032 7.464844-9.667968 9.585937-12.621094 23.917968-7.523437 36.503906.070312.164062.167969.304687.285156.425781.121094.121094.265625.222656.433594.285156 3.601562 1.433594 7.351562 2.203125 11.089843 2.382813-1.699218-10.550782 1.722657-21.441406 9.5625-29.210938zm0 0" fill="#81aa00" data-original="#81aa00"></path><path xmlns="http://www.w3.org/2000/svg" d="m140.800781 373.652344c-.121093.125-.21875.265625-.285156.425781-5.105469 12.589844-2.148437 26.917969 7.523437 36.511719 9.675782 9.585937 24.125 12.515625 36.824219 7.460937.167969-.0625.3125-.164062.433594-.285156.117187-.121094.214844-.261719.285156-.425781 5.097657-12.585938 2.148438-26.917969-7.523437-36.503906-9.675782-9.59375-24.128906-12.519532-36.828125-7.464844-.164063.066406-.308594.164062-.429688.28125zm0 0" fill="#99ce19" data-original="#99ce19"></path><path xmlns="http://www.w3.org/2000/svg" d="m161.324219 397.699219c-7.210938-7.148438-10.679688-16.933594-9.871094-26.667969-3.449219.253906-6.898437 1.019531-10.226563 2.339844-.160156.066406-.304687.164062-.425781.28125-.121093.125-.21875.265625-.285156.425781-5.105469 12.589844-2.148437 26.917969 7.523437 36.511719 9.675782 9.585937 24.125 12.515625 36.824219 7.460937.164063-.0625.3125-.164062.433594-.285156.117187-.121094.214844-.261719.285156-.425781 1.296875-3.203125 2.066407-6.515625 2.34375-9.839844-9.71875.710938-19.460937-2.726562-26.601562-9.800781zm0 0" fill="#81aa00" data-original="#81aa00"></path></g></svg>