<svg xmlns="http://www.w3.org/2000/svg" version="1.1" xmlns:xlink="http://www.w3.org/1999/xlink" xmlns:svgjs="http://svgjs.com/svgjs" width="512" height="512" x="0" y="0" viewBox="0 0 512 512" style="enable-background:new 0 0 512 512" xml:space="preserve" class=""><g><g xmlns="http://www.w3.org/2000/svg"><circle cx="256" cy="256" fill="#9dcfff" r="256" data-original="#9dcfff" class=""></circle><path d="m512 256c0-141.385-114.615-256-256-256s-256 114.615-256 256c0 133.467 102.143 243.059 232.52 254.918l23.48-28.638 23.48 28.638c130.377-11.859 232.52-121.451 232.52-254.918z" fill="#9dcfff" data-original="#9dcfff" class=""></path><g><path d="m279.48 510.918c130.377-11.859 232.52-121.451 232.52-254.918 0-21.179-2.59-41.75-7.438-61.433l-147.322-147.321-202.48 377.508 81.141 81.142.392.419 19.707-24.035z" fill="#4cb8eb" data-original="#4cb8eb" class=""></path></g><g><path d="m232.52 424.754v86.163c7.734.704 15.562 1.083 23.48 1.083l10-38.36-10-48.886z" fill="#d1d9e1" data-original="#d1d9e1"></path><path d="m256 424.754v87.246c7.918 0 15.746-.379 23.48-1.082v-86.163h-23.48z" fill="#a1aab7" data-original="#a1aab7"></path></g><g><path d="m200.12 401.575v54.785h55.88l10-16.56-10-38.225z" fill="#9f9fa4" data-original="#9f9fa4"></path><path d="m256 401.575h55.88v54.785h-55.88z" fill="#7d8186" data-original="#7d8186"></path></g><g><g><path d="m154.76 47.246v377.508h101.24l9.15-188.754-9.15-188.754z" fill="#fff275" data-original="#fff275" class=""></path><path d="m256 47.246h101.24v377.509h-101.24z" fill="#ffd300" data-original="#ffd300"></path></g><g><path d="m182.211 397.303h73.789l9.15-76.351-9.15-71.226h-73.789z" fill="#09607d" data-original="#09607d" class=""></path><path d="m256 249.726h73.789v147.578h-73.789z" fill="#04303e" data-original="#04303e" class=""></path><path d="m182.211 74.697v147.577h73.789l9.15-73.788-9.15-73.789z" fill="#09607d" data-original="#09607d" class=""></path><path d="m256 74.697h73.789v147.578h-73.789z" fill="#04303e" data-original="#04303e" class=""></path></g><g><path d="m237.699 108.865c0 6.326 3.21 11.901 8.089 15.188h-21.814c-5.054 0-9.15 4.097-9.15 9.15s4.097 9.15 9.15 9.15h13.726v54.902c0 5.053 4.097 9.15 9.15 9.15s9.15-4.097 9.15-9.15l9.15-48.771-9.15-57.919c-10.107 0-18.301 8.193-18.301 18.3z" fill="#ff3939" data-original="#ff3939" class=""></path><path d="m265.15 206.407c5.054 0 9.15-4.097 9.15-9.15v-54.902h13.726c5.054 0 9.15-4.097 9.15-9.15 0-5.054-4.097-9.15-9.15-9.15h-21.814c4.879-3.287 8.089-8.862 8.089-15.188 0-10.107-8.194-18.301-18.301-18.301v106.692c0 5.052 4.097 9.149 9.15 9.149z" fill="#c8001c" data-original="#c8001c" class=""></path><path d="m250.669 270.863c-10.107 0-18.301 8.194-18.301 18.301 0 8.085 5.248 14.932 12.519 17.354l-21.315 6.638c-4.825 1.503-7.518 6.632-6.016 11.457 1.503 4.825 6.632 7.518 11.457 6.016l9.968-3.104-14.96 40.923c-1.735 4.746.706 10.001 5.452 11.736 4.746 1.735 10.001-.706 11.736-5.452l14.786-40.444.005.013 9.15-24.766-9.15-37.878c-1.687-.513-3.476-.794-5.331-.794z" fill="#ade232" data-original="#ade232" class=""></path><path d="m283.993 294.532-18.916 5.89c2.431-3.107 3.893-7.008 3.893-11.259 0-8.252-5.464-15.224-12.97-17.507v62.642l14.781 40.432c1.735 4.747 6.989 7.187 11.736 5.452 4.746-1.735 7.187-6.989 5.452-11.736l-18.375-50.263 19.84-6.178c4.825-1.503 7.518-6.632 6.016-11.457-1.503-4.825-6.632-7.518-11.457-6.016z" fill="#8dc805" data-original="#8dc805" class=""></path></g></g></g></g></svg>