<svg xmlns="http://www.w3.org/2000/svg" version="1.1" xmlns:xlink="http://www.w3.org/1999/xlink" xmlns:svgjs="http://svgjs.com/svgjs" width="512" height="512" x="0" y="0" viewBox="0 0 72 72" style="enable-background:new 0 0 512 512" xml:space="preserve" class=""><g><g><g><path d="m18.7 9v14.8c-7.2-1.1-12.7-7.3-12.7-14.8z" fill="#ffffff" data-original="#000000" class=""></path><path d="m66 9c0 4.1-1.7 7.9-4.4 10.6-2.2 2.2-5.1 3.7-8.3 4.2v-14.8z" fill="#ffffff" data-original="#000000" class=""></path><path d="m18.7 28.5v14.8c-7.2-1.1-12.7-7.3-12.7-14.8z" fill="#ffffff" data-original="#000000" class=""></path><path d="m66 28.5c0 4.1-1.7 7.9-4.4 10.6-2.2 2.2-5.1 3.7-8.3 4.2v-14.8z" fill="#ffffff" data-original="#000000" class=""></path><path d="m18.7 48v14.8c-7.2-1.1-12.7-7.3-12.7-14.8z" fill="#ffffff" data-original="#000000" class=""></path><path d="m66 48c0 4.1-1.7 7.9-4.4 10.6-2.2 2.2-5.1 3.7-8.3 4.2v-14.8z" fill="#ffffff" data-original="#000000" class=""></path></g><path d="m48.2 4h-24.5c-1.7 0-3 1.3-3 3v58c0 1.7 1.3 3 3 3h24.5c1.7 0 3-1.3 3-3v-58c0-1.7-1.3-3-3-3zm-12.2 59c-4.1 0-7.5-3.4-7.5-7.5s3.4-7.5 7.5-7.5 7.5 3.4 7.5 7.5c0 4.2-3.4 7.5-7.5 7.5zm0-19.5c-4.1 0-7.5-3.4-7.5-7.5s3.4-7.5 7.5-7.5 7.5 3.4 7.5 7.5-3.4 7.5-7.5 7.5zm0-19.5c-4.1 0-7.5-3.4-7.5-7.5s3.4-7.5 7.5-7.5 7.5 3.4 7.5 7.5-3.4 7.5-7.5 7.5z" fill="#ffffff" data-original="#000000" class=""></path></g></g></svg>