<svg xmlns="http://www.w3.org/2000/svg" version="1.1" xmlns:xlink="http://www.w3.org/1999/xlink" xmlns:svgjs="http://svgjs.com/svgjs" width="512" height="512" x="0" y="0" viewBox="0 0 512 512" style="enable-background:new 0 0 512 512" xml:space="preserve" class=""><g><g xmlns="http://www.w3.org/2000/svg" id="_x34_5_Free_Wifi"><g><path d="m342.712 323.655c7.517 7.517 7.517 19.718 0 27.288-7.517 7.517-19.717 7.517-27.288 0-32.735-32.789-86.113-32.789-118.847 0-7.571 7.517-19.772 7.517-27.288 0-7.517-7.57-7.517-19.771 0-27.288 47.821-47.822 125.601-47.822 173.423 0z" fill="#ffffff" data-original="#000000" class=""></path><path d="m301.045 410.367c0 25-20.207 45.154-45.099 45.154s-45.045-20.153-45.045-45.154c0-24.891 20.153-45.044 45.045-45.044s45.099 20.152 45.099 45.044z" fill="#ffffff" data-original="#000000" class=""></path><path d="m451.81 214.557c7.517 7.571 7.517 19.772 0 27.287-7.517 7.517-19.717 7.517-27.288 0-92.921-92.921-244.122-92.921-337.043 0-7.571 7.517-19.772 7.517-27.288 0-7.517-7.516-7.517-19.716 0-27.287 107.953-107.954 283.665-107.954 391.619 0z" fill="#ffffff" data-original="#000000" class=""></path><path d="m506.332 187.269c-7.517 7.571-19.717 7.571-27.234 0-123.042-122.987-323.154-122.987-446.196 0-7.517 7.571-19.717 7.571-27.234 0-7.571-7.516-7.571-19.717 0-27.234 138.02-138.074 362.643-138.074 500.663 0 7.571 7.517 7.571 19.718.001 27.234z" fill="#ffffff" data-original="#000000" class=""></path><path d="m397.234 269.133c7.571 7.517 7.571 19.718 0 27.234-7.517 7.572-19.717 7.572-27.234 0-62.91-62.855-165.09-62.855-228 0-7.517 7.572-19.717 7.572-27.234 0-7.571-7.516-7.571-19.716 0-27.234 77.943-77.997 204.525-77.997 282.468 0z" fill="#ffffff" data-original="#000000" class=""></path></g></g></g></svg>